<svg xmlns="http://www.w3.org/2000/svg" xmlns:xlink="http://www.w3.org/1999/xlink" id="Layer_1" x="0" y="0" version="1.1" viewBox="0 0 1920 1080" xml:space="preserve" style="enable-background:new 0 0 1920 1080"><style type="text/css">.st0{fill:#fff}.st1{opacity:.5}.st2{fill:url(#SVGID_1_)}.st3{fill:url(#SVGID_2_)}.st4{fill:url(#SVGID_3_)}.st5{fill:url(#SVGID_4_)}.st6{fill:url(#SVGID_5_)}.st7{fill:url(#SVGID_6_)}.st8{fill:url(#SVGID_7_)}.st9{fill:url(#SVGID_8_)}.st10{fill:url(#SVGID_9_)}.st11{fill:url(#SVGID_10_)}.st12{fill:url(#SVGID_11_)}.st13{fill:url(#SVGID_12_)}.st14{fill:url(#SVGID_13_)}.st15{fill:url(#SVGID_14_)}.st16{fill:url(#SVGID_15_)}.st17{opacity:.4}.st18{fill:url(#SVGID_16_)}.st19{fill:url(#SVGID_17_)}.st20{fill:url(#SVGID_18_)}.st21{fill:url(#SVGID_19_)}.st22{fill:url(#SVGID_20_)}.st23{fill:url(#SVGID_21_)}.st24{fill:url(#SVGID_22_)}.st25{fill:url(#SVGID_23_)}.st26{fill:url(#SVGID_24_)}.st27{fill:url(#SVGID_25_)}.st28{fill:url(#SVGID_26_)}.st29{fill:url(#SVGID_27_)}.st30{fill:url(#SVGID_28_)}.st31{fill:url(#SVGID_29_)}.st32{fill:url(#SVGID_30_)}.st33{fill:url(#SVGID_31_)}.st34{fill:url(#SVGID_32_)}.st35{fill:url(#SVGID_33_)}.st36{fill:url(#SVGID_34_)}.st37{fill:url(#SVGID_35_)}.st38{fill:url(#SVGID_36_)}.st39{fill:url(#SVGID_37_)}.st40{fill:url(#SVGID_38_)}.st41{fill:url(#SVGID_39_)}.st42{fill:url(#SVGID_40_)}.st43{fill:url(#SVGID_41_)}.st44{fill:url(#SVGID_42_)}.st45{fill:url(#SVGID_43_)}.st46{fill:url(#SVGID_44_)}.st47{fill:url(#SVGID_45_)}.st48{fill:url(#SVGID_46_)}.st49{fill:url(#SVGID_47_)}.st50{fill:url(#SVGID_48_)}.st51{fill:url(#SVGID_49_)}.st52{fill:url(#SVGID_50_)}.st53{fill:url(#SVGID_51_)}.st54{fill:url(#SVGID_52_)}.st55{fill:url(#SVGID_53_)}.st56{fill:url(#SVGID_54_)}.st57{fill:url(#SVGID_55_)}.st58{fill:url(#SVGID_56_)}.st59{fill:url(#SVGID_57_)}.st60{fill:url(#SVGID_58_)}.st61{fill:url(#SVGID_59_)}.st62{fill:url(#SVGID_60_)}.st63{fill:url(#SVGID_61_)}.st64{fill:url(#SVGID_62_)}.st65{fill:url(#SVGID_63_)}.st66{fill:url(#SVGID_64_)}.st67{fill:url(#SVGID_65_)}.st68{fill:url(#SVGID_66_)}.st69{fill:url(#SVGID_67_)}.st70{fill:url(#SVGID_68_)}.st71{fill:url(#SVGID_69_)}.st72{fill:url(#SVGID_70_)}.st73{fill:url(#SVGID_71_)}.st74{fill:url(#SVGID_72_)}.st75{fill:url(#SVGID_73_)}.st76{fill:url(#SVGID_74_)}.st77{fill:url(#SVGID_75_)}.st78{fill:url(#SVGID_76_)}.st79{fill:url(#SVGID_77_)}.st80{fill:url(#SVGID_78_)}.st81{fill:url(#SVGID_79_)}.st82{fill:url(#SVGID_80_)}.st83{fill:url(#SVGID_81_)}.st84{fill:url(#SVGID_82_)}.st85{fill:url(#SVGID_83_)}.st86{fill:url(#SVGID_84_)}.st87{fill:url(#SVGID_85_)}.st88{fill:url(#SVGID_86_)}.st89{display:none}.st90,.st91{display:inline;fill:#4dabcf}.st91{fill:#fff}.st92{font-family:&apos;Barlow-Bold&apos;}.st93{font-size:36px}.st94{fill:#4dabcf}.st95{display:inline}.st96{opacity:.2;enable-background:new}.st97{fill:#4d77cf}.st98{fill:#4d4d4d}.st99{font-family:&apos;Roboto-Bold&apos;}.st100{font-size:20px}.st101{fill:none;stroke:#fff;stroke-width:2;stroke-miterlimit:10}.st102{fill:none;stroke-linejoin:round}.st102,.st103{stroke:#fff;stroke-width:2;stroke-linecap:round;stroke-miterlimit:10}.st103,.st104{fill:none}.st105{fill:#666}.st106{font-size:18px}.st107{fill:url(#SVGID_87_)}.st108{opacity:.8}.st109{fill:url(#SVGID_88_)}.st110{fill:url(#SVGID_89_)}.st111{fill:url(#SVGID_90_)}.st112{fill:url(#SVGID_91_)}.st113{fill:url(#SVGID_92_)}.st114{fill:url(#SVGID_93_)}.st115{fill:url(#SVGID_94_)}.st116{fill:url(#SVGID_95_)}.st117{fill:url(#SVGID_96_)}.st118{fill:url(#SVGID_97_)}.st119{fill:url(#SVGID_98_)}.st120{fill:url(#SVGID_99_)}.st121{fill:url(#SVGID_100_)}.st122{fill:url(#SVGID_101_)}.st123{font-size:100px}.st124{font-size:30px}.st125{stroke-width:4}.st125,.st126,.st127{fill:none;stroke:#4dabcf;stroke-miterlimit:10}.st126{stroke-width:2}.st127{stroke-width:4;stroke-linecap:round;stroke-linejoin:round}.st128{fill:#ffc553}.st129{stroke:#ffc553;stroke-width:4;stroke-miterlimit:10}.st129,.st130,.st131{fill:none}.st130,.st131,.st132{stroke:#ffc553;stroke-miterlimit:10}.st130{stroke-width:2}.st131,.st132{stroke-width:4;stroke-linecap:round}.st132{fill:#fff}.st133{display:inline;opacity:.3}.st134{fill:#4e77cf}.st135{fill:#76eeff}.st136{display:inline;opacity:.2}.st137{fill:#13ffed}.st138{fill:#2c00bf}</style><switch><g><g id="bg5"><rect width="1920" height="1080" class="st0"/><g class="st1"><g><g><linearGradient id="SVGID_1_" x1="1714.939" x2="709.218" y1="-550.334" y2="1002.498" gradientTransform="matrix(1 0 0 -1 -547.1992 1319.1992)" gradientUnits="userSpaceOnUse"><stop offset="0" style="stop-color:#52bbe8"/><stop offset=".196" style="stop-color:#69c3eb"/><stop offset=".604" style="stop-color:#a3d8f1"/><stop offset="1" style="stop-color:#e1eff8"/></linearGradient><path d="M320.2,675.1L320,675l-98.7-57V503.8l0.2-0.1l98.7-57l0.2,0.1l98.7,57V618l-0.2,0.1L320.2,675.1z M222.2,617.5l98,56.6l98-56.6V504.3l-98-56.6l-98,56.6L222.2,617.5L222.2,617.5z" class="st2"/></g><g><linearGradient id="SVGID_2_" x1="1567.741" x2="562.019" y1="-645.673" y2="907.159" gradientTransform="matrix(1 0 0 -1 -547.1992 1319.1992)" gradientUnits="userSpaceOnUse"><stop offset="0" style="stop-color:#52bbe8"/><stop offset=".196" style="stop-color:#69c3eb"/><stop offset=".604" style="stop-color:#a3d8f1"/><stop offset="1" style="stop-color:#e1eff8"/></linearGradient><path d="M221.7,845.7l-0.2-0.1l-98.7-57V674.4l0.2-0.1l98.7-57l0.2,0.1l98.7,57v114.2l-0.2,0.1L221.7,845.7z M123.7,788.1l98,56.6l98-56.6V674.9l-98-56.6l-98,56.6L123.7,788.1L123.7,788.1z" class="st3"/></g><g><linearGradient id="SVGID_3_" x1="1706.484" x2="700.773" y1="-555.799" y2="997.018" gradientTransform="matrix(1 0 0 -1 -547.1992 1319.1992)" gradientUnits="userSpaceOnUse"><stop offset="0" style="stop-color:#52bbe8"/><stop offset=".196" style="stop-color:#69c3eb"/><stop offset=".604" style="stop-color:#a3d8f1"/><stop offset="1" style="stop-color:#e1eff8"/></linearGradient><path d="M418.7,845.7l-0.2-0.1l-98.7-57V674.4l0.2-0.1l98.7-57l0.2,0.1l98.7,57v114.2l-0.2,0.1L418.7,845.7z M320.6,788.1l98,56.6l98-56.6V674.9l-98-56.6l-98,56.6L320.6,788.1L320.6,788.1z" class="st4"/></g><g><linearGradient id="SVGID_4_" x1="1845.234" x2="839.516" y1="-465.938" y2="1086.887" gradientTransform="matrix(1 0 0 -1 -547.1992 1319.1992)" gradientUnits="userSpaceOnUse"><stop offset="0" style="stop-color:#52bbe8"/><stop offset=".196" style="stop-color:#69c3eb"/><stop offset=".604" style="stop-color:#a3d8f1"/><stop offset="1" style="stop-color:#e1eff8"/></linearGradient><path d="M615.6,845.7l-0.2-0.1l-98.7-57V674.4l0.2-0.1l98.7-57l0.2,0.1l98.7,57v114.2l-0.2,0.1L615.6,845.7z M517.6,788.1l98,56.6l98-56.6V674.9l-98-56.6l-98,56.6V788.1z" class="st5"/></g><g><linearGradient id="SVGID_5_" x1="1983.978" x2="978.275" y1="-376.062" y2="1176.74" gradientTransform="matrix(1 0 0 -1 -547.1992 1319.1992)" gradientUnits="userSpaceOnUse"><stop offset="0" style="stop-color:#52bbe8"/><stop offset=".196" style="stop-color:#69c3eb"/><stop offset=".604" style="stop-color:#a3d8f1"/><stop offset="1" style="stop-color:#e1eff8"/></linearGradient><path d="M812.6,845.7l-0.2-0.1l-98.7-57V674.4l0.2-0.1l98.7-57l0.2,0.1l98.7,57v114.2l-0.2,0.1L812.6,845.7z M714.5,788.1l98,56.6l98.1-56.6V674.9l-98.1-56.6l-98,56.6V788.1z" class="st6"/></g><g><linearGradient id="SVGID_6_" x1="2758.716" x2="1753.036" y1="125.71" y2="1678.477" gradientTransform="matrix(1 0 0 -1 -547.1992 1319.1992)" gradientUnits="userSpaceOnUse"><stop offset="0" style="stop-color:#52bbe8"/><stop offset=".196" style="stop-color:#69c3eb"/><stop offset=".604" style="stop-color:#a3d8f1"/><stop offset="1" style="stop-color:#e1eff8"/></linearGradient><polygon points="1920 801.8 1896.3 788.1 1896.3 674.9 1920 661.2 1920 660.2 1895.6 674.3 1895.4 674.4 1895.4 788.6 1920 802.8" class="st7"/></g><g><linearGradient id="SVGID_7_" x1="1559.287" x2="553.57" y1="-651.141" y2="901.683" gradientTransform="matrix(1 0 0 -1 -547.1992 1319.1992)" gradientUnits="userSpaceOnUse"><stop offset="0" style="stop-color:#52bbe8"/><stop offset=".196" style="stop-color:#69c3eb"/><stop offset=".604" style="stop-color:#a3d8f1"/><stop offset="1" style="stop-color:#e1eff8"/></linearGradient><path d="M320.2,1016.3l-0.2-0.1l-98.7-57V845l0.2-0.1l98.7-57l0.2,0.1l98.7,57v114.2l-0.2,0.1L320.2,1016.3z M222.2,958.7l98,56.6l98-56.6V845.5l-98-56.6l-98,56.6L222.2,958.7L222.2,958.7z" class="st8"/></g><g><linearGradient id="SVGID_8_" x1="1698.043" x2="692.311" y1="-561.29" y2="991.558" gradientTransform="matrix(1 0 0 -1 -547.1992 1319.1992)" gradientUnits="userSpaceOnUse"><stop offset="0" style="stop-color:#52bbe8"/><stop offset=".196" style="stop-color:#69c3eb"/><stop offset=".604" style="stop-color:#a3d8f1"/><stop offset="1" style="stop-color:#e1eff8"/></linearGradient><path d="M517.1,1016.3l-0.2-0.1l-98.7-57V845l0.2-0.1l98.7-57l0.2,0.1l98.7,57v114.2l-0.2,0.1L517.1,1016.3z M419.1,958.7l98,56.6l98.1-56.6V845.5l-98.1-56.6l-98,56.6L419.1,958.7L419.1,958.7z" class="st9"/></g><g><linearGradient id="SVGID_9_" x1="1836.788" x2="831.07" y1="-471.412" y2="1081.413" gradientTransform="matrix(1 0 0 -1 -547.1992 1319.1992)" gradientUnits="userSpaceOnUse"><stop offset="0" style="stop-color:#52bbe8"/><stop offset=".196" style="stop-color:#69c3eb"/><stop offset=".604" style="stop-color:#a3d8f1"/><stop offset="1" style="stop-color:#e1eff8"/></linearGradient><path d="M714.1,1016.3l-0.2-0.1l-98.7-57V845l0.2-0.1l98.7-57l0.2,0.1l98.7,57v114.2l-0.2,0.1L714.1,1016.3z M616.1,958.7l98.1,56.6l98-56.6V845.5l-98-56.6l-98.1,56.6V958.7z" class="st10"/></g><g><linearGradient id="SVGID_10_" x1="1423.435" x2="417.714" y1="-739.131" y2="813.7" gradientTransform="matrix(1 0 0 -1 -547.1992 1319.1992)" gradientUnits="userSpaceOnUse"><stop offset="0" style="stop-color:#52bbe8"/><stop offset=".196" style="stop-color:#69c3eb"/><stop offset=".604" style="stop-color:#a3d8f1"/><stop offset="1" style="stop-color:#e1eff8"/></linearGradient><polygon points="123.7 1080 123.7 1016 221.7 959.4 319.8 1016 319.8 1080 320.6 1080 320.6 1015.5 221.9 958.6 221.7 958.4 123 1015.4 122.8 1015.5 122.8 1080" class="st11"/></g><g><linearGradient id="SVGID_11_" x1="1562.187" x2="556.46" y1="-649.273" y2="903.567" gradientTransform="matrix(1 0 0 -1 -547.1992 1319.1992)" gradientUnits="userSpaceOnUse"><stop offset="0" style="stop-color:#52bbe8"/><stop offset=".196" style="stop-color:#69c3eb"/><stop offset=".604" style="stop-color:#a3d8f1"/><stop offset="1" style="stop-color:#e1eff8"/></linearGradient><polygon points="320.6 1080 320.6 1016 418.7 959.4 516.7 1016 516.7 1080 517.6 1080 517.6 1015.5 418.9 958.6 418.7 958.4 320 1015.4 319.8 1015.5 319.8 1080" class="st12"/></g><g><linearGradient id="SVGID_12_" x1="1700.928" x2="695.225" y1="-559.391" y2="993.413" gradientTransform="matrix(1 0 0 -1 -547.1992 1319.1992)" gradientUnits="userSpaceOnUse"><stop offset="0" style="stop-color:#52bbe8"/><stop offset=".196" style="stop-color:#69c3eb"/><stop offset=".604" style="stop-color:#a3d8f1"/><stop offset="1" style="stop-color:#e1eff8"/></linearGradient><polygon points="517.6 1080 517.6 1016 615.6 959.4 713.7 1016 713.7 1080 714.5 1080 714.5 1015.5 615.8 958.6 615.6 958.4 516.9 1015.4 516.7 1015.5 516.7 1080" class="st13"/></g><g><linearGradient id="SVGID_13_" x1="1839.695" x2="833.956" y1="-469.556" y2="1083.304" gradientTransform="matrix(1 0 0 -1 -547.1992 1319.1992)" gradientUnits="userSpaceOnUse"><stop offset="0" style="stop-color:#52bbe8"/><stop offset=".196" style="stop-color:#69c3eb"/><stop offset=".604" style="stop-color:#a3d8f1"/><stop offset="1" style="stop-color:#e1eff8"/></linearGradient><polygon points="714.5 1080 714.5 1016 812.6 959.4 910.6 1016 910.6 1080 911.5 1080 911.5 1015.5 812.8 958.6 812.6 958.4 713.9 1015.4 713.7 1015.5 713.7 1080" class="st14"/></g><g><linearGradient id="SVGID_14_" x1="2394.694" x2="1388.961" y1="-110.085" y2="1442.765" gradientTransform="matrix(1 0 0 -1 -547.1992 1319.1992)" gradientUnits="userSpaceOnUse"><stop offset="0" style="stop-color:#52bbe8"/><stop offset=".196" style="stop-color:#69c3eb"/><stop offset=".604" style="stop-color:#a3d8f1"/><stop offset="1" style="stop-color:#e1eff8"/></linearGradient><polygon points="1502.3 1080 1502.3 1016 1600.4 959.4 1698.4 1016 1698.4 1080 1699.3 1080 1699.3 1015.5 1600.6 958.6 1600.4 958.4 1501.7 1015.4 1501.5 1015.5 1501.5 1080" class="st15"/></g><g><linearGradient id="SVGID_15_" x1="2533.446" x2="1527.698" y1="-20.227" y2="1532.646" gradientTransform="matrix(1 0 0 -1 -547.1992 1319.1992)" gradientUnits="userSpaceOnUse"><stop offset="0" style="stop-color:#52bbe8"/><stop offset=".196" style="stop-color:#69c3eb"/><stop offset=".604" style="stop-color:#a3d8f1"/><stop offset="1" style="stop-color:#e1eff8"/></linearGradient><polygon points="1699.3 1080 1699.3 1016 1797.3 959.4 1895.4 1016 1895.4 1080 1896.3 1080 1896.3 1015.5 1797.6 958.6 1797.3 958.4 1698.7 1015.4 1698.4 1015.5 1698.4 1080" class="st16"/></g></g><g class="st17"><image style="overflow:visible;enable-background:new" width="1992" height="808" transform="matrix(1 0 0 1 -35.9998 307.9998)" xlink:href="5219A361.png"/></g><g><linearGradient id="SVGID_16_" x1="1671.527" x2="665.783" y1="-578.498" y2="974.369" gradientTransform="matrix(1 0 0 -1 -547.1992 1319.1992)" gradientUnits="userSpaceOnUse"><stop offset="0" style="stop-color:#52bbe8"/><stop offset=".196" style="stop-color:#69c3eb"/><stop offset=".604" style="stop-color:#a3d8f1"/><stop offset="1" style="stop-color:#e1eff8"/></linearGradient><path d="M221.7,493.7c-5.7,0-10.4,4.6-10.4,10.4s4.6,10.4,10.4,10.4c5.7,0,10.4-4.6,10.4-10.4 C232.1,498.3,227.4,493.7,221.7,493.7z" class="st18"/><linearGradient id="SVGID_17_" x1="1629.743" x2="622.267" y1="-609.176" y2="946.365" gradientTransform="matrix(1 0 0 -1 -547.1992 1319.1992)" gradientUnits="userSpaceOnUse"><stop offset="0" style="stop-color:#52bbe8"/><stop offset=".196" style="stop-color:#69c3eb"/><stop offset=".604" style="stop-color:#a3d8f1"/><stop offset="1" style="stop-color:#e1eff8"/></linearGradient><path d="M124.2,447.2c0-0.5-0.4-0.9-0.9-0.9c-0.5,0-0.9,0.4-0.9,0.9c0,0.5,0.4,0.9,0.9,0.9 C123.7,448.1,124.2,447.7,124.2,447.2z" class="st19"/><linearGradient id="SVGID_18_" x1="1810.178" x2="804.55" y1="-488.48" y2="1064.206" gradientTransform="matrix(1 0 0 -1 -547.1992 1319.1992)" gradientUnits="userSpaceOnUse"><stop offset="0" style="stop-color:#52bbe8"/><stop offset=".196" style="stop-color:#69c3eb"/><stop offset=".604" style="stop-color:#a3d8f1"/><stop offset="1" style="stop-color:#e1eff8"/></linearGradient><path d="M412.2,504.1c0,3.6,2.9,6.5,6.4,6.5c3.6,0,6.4-2.9,6.4-6.5c0-3.6-2.9-6.4-6.4-6.4 C415.1,497.6,412.2,500.5,412.2,504.1z" class="st20"/><linearGradient id="SVGID_19_" x1="1766.793" x2="761.106" y1="-516.683" y2="1036.094" gradientTransform="matrix(1 0 0 -1 -547.1992 1319.1992)" gradientUnits="userSpaceOnUse"><stop offset="0" style="stop-color:#52bbe8"/><stop offset=".196" style="stop-color:#69c3eb"/><stop offset=".604" style="stop-color:#a3d8f1"/><stop offset="1" style="stop-color:#e1eff8"/></linearGradient><circle cx="320.2" cy="447.2" r="12.6" class="st21"/><linearGradient id="SVGID_20_" x1="1758.311" x2="752.67" y1="-522.105" y2="1030.602" gradientTransform="matrix(1 0 0 -1 -547.1992 1319.1992)" gradientUnits="userSpaceOnUse"><stop offset="0" style="stop-color:#52bbe8"/><stop offset=".196" style="stop-color:#69c3eb"/><stop offset=".604" style="stop-color:#a3d8f1"/><stop offset="1" style="stop-color:#e1eff8"/></linearGradient><path d="M418.7,628.5c5.9,0,10.7-4.8,10.7-10.7c0-5.9-4.8-10.7-10.7-10.7c-5.9,0-10.7,4.8-10.7,10.7 C408,623.7,412.8,628.5,418.7,628.5z" class="st22"/><linearGradient id="SVGID_21_" x1="1897.034" x2="891.437" y1="-432.199" y2="1120.44" gradientTransform="matrix(1 0 0 -1 -547.1992 1319.1992)" gradientUnits="userSpaceOnUse"><stop offset="0" style="stop-color:#52bbe8"/><stop offset=".196" style="stop-color:#69c3eb"/><stop offset=".604" style="stop-color:#a3d8f1"/><stop offset="1" style="stop-color:#e1eff8"/></linearGradient><path d="M620.7,617.8c0-2.8-2.3-5.1-5.1-5.1c-2.8,0-5.1,2.3-5.1,5.1c0,2.8,2.3,5.1,5.1,5.1 C618.4,622.9,620.7,620.6,620.7,617.8z" class="st23"/><linearGradient id="SVGID_22_" x1="1940.6" x2="934.82" y1="-404.271" y2="1148.65" gradientTransform="matrix(1 0 0 -1 -547.1992 1319.1992)" gradientUnits="userSpaceOnUse"><stop offset="0" style="stop-color:#52bbe8"/><stop offset=".196" style="stop-color:#69c3eb"/><stop offset=".604" style="stop-color:#a3d8f1"/><stop offset="1" style="stop-color:#e1eff8"/></linearGradient><circle cx="714.1" cy="674.6" r="9.8" class="st24"/><linearGradient id="SVGID_23_" x1="2035.92" x2="1030.132" y1="-342.547" y2="1210.388" gradientTransform="matrix(1 0 0 -1 -547.1992 1319.1992)" gradientUnits="userSpaceOnUse"><stop offset="0" style="stop-color:#52bbe8"/><stop offset=".196" style="stop-color:#69c3eb"/><stop offset=".604" style="stop-color:#a3d8f1"/><stop offset="1" style="stop-color:#e1eff8"/></linearGradient><path d="M822.1,617.8c0-5.2-4.2-9.5-9.5-9.5c-5.2,0-9.5,4.2-9.5,9.5c0,5.2,4.2,9.5,9.5,9.5 C817.8,627.3,822.1,623,822.1,617.8z" class="st25"/><linearGradient id="SVGID_24_" x1="2079.328" x2="1073.574" y1="-314.375" y2="1238.507" gradientTransform="matrix(1 0 0 -1 -547.1992 1319.1992)" gradientUnits="userSpaceOnUse"><stop offset="0" style="stop-color:#52bbe8"/><stop offset=".196" style="stop-color:#69c3eb"/><stop offset=".604" style="stop-color:#a3d8f1"/><stop offset="1" style="stop-color:#e1eff8"/></linearGradient><path d="M911.1,685.7c6.1,0,11.1-5,11.1-11.1s-5-11.1-11.1-11.1c-6.1,0-11.1,5-11.1,11.1S904.9,685.7,911.1,685.7 z" class="st26"/><linearGradient id="SVGID_25_" x1="1515.829" x2="510.144" y1="-679.232" y2="873.541" gradientTransform="matrix(1 0 0 -1 -547.1992 1319.1992)" gradientUnits="userSpaceOnUse"><stop offset="0" style="stop-color:#52bbe8"/><stop offset=".196" style="stop-color:#69c3eb"/><stop offset=".604" style="stop-color:#a3d8f1"/><stop offset="1" style="stop-color:#e1eff8"/></linearGradient><path d="M221.7,838.8c-3.5,0-6.4,2.9-6.4,6.4c0,3.5,2.9,6.4,6.4,6.4c3.5,0,6.4-2.9,6.4-6.4 C228.1,841.7,225.2,838.8,221.7,838.8z" class="st27"/><linearGradient id="SVGID_26_" x1="1472.533" x2="466.672" y1="-707.575" y2="845.471" gradientTransform="matrix(1 0 0 -1 -547.1992 1319.1992)" gradientUnits="userSpaceOnUse"><stop offset="0" style="stop-color:#52bbe8"/><stop offset=".196" style="stop-color:#69c3eb"/><stop offset=".604" style="stop-color:#a3d8f1"/><stop offset="1" style="stop-color:#e1eff8"/></linearGradient><circle cx="123.2" cy="788.4" r="5.1" class="st28"/><linearGradient id="SVGID_27_" x1="1524.209" x2="518.601" y1="-673.652" y2="879.004" gradientTransform="matrix(1 0 0 -1 -547.1992 1319.1992)" gradientUnits="userSpaceOnUse"><stop offset="0" style="stop-color:#52bbe8"/><stop offset=".196" style="stop-color:#69c3eb"/><stop offset=".604" style="stop-color:#a3d8f1"/><stop offset="1" style="stop-color:#e1eff8"/></linearGradient><path d="M120.8,674.6c0,1.3,1.1,2.4,2.4,2.4c1.3,0,2.4-1.1,2.4-2.4c0-1.3-1.1-2.4-2.4-2.4 S120.8,673.3,120.8,674.6z" class="st29"/><linearGradient id="SVGID_28_" x1="1619.57" x2="613.911" y1="-611.986" y2="940.749" gradientTransform="matrix(1 0 0 -1 -547.1992 1319.1992)" gradientUnits="userSpaceOnUse"><stop offset="0" style="stop-color:#52bbe8"/><stop offset=".196" style="stop-color:#69c3eb"/><stop offset=".604" style="stop-color:#a3d8f1"/><stop offset="1" style="stop-color:#e1eff8"/></linearGradient><path d="M231.7,617.8c0-5.5-4.5-10-10-10c-5.5,0-10,4.5-10,10c0,5.5,4.5,10,10,10 C227.3,627.8,231.7,623.3,231.7,617.8z" class="st30"/><linearGradient id="SVGID_29_" x1="1611.116" x2="605.473" y1="-617.451" y2="935.258" gradientTransform="matrix(1 0 0 -1 -547.1992 1319.1992)" gradientUnits="userSpaceOnUse"><stop offset="0" style="stop-color:#52bbe8"/><stop offset=".196" style="stop-color:#69c3eb"/><stop offset=".604" style="stop-color:#a3d8f1"/><stop offset="1" style="stop-color:#e1eff8"/></linearGradient><path d="M311.9,788.4c0,4.6,3.7,8.2,8.3,8.2c4.6,0,8.3-3.7,8.3-8.2c0-4.6-3.7-8.3-8.3-8.3 C315.6,780.1,311.9,783.8,311.9,788.4z" class="st31"/><linearGradient id="SVGID_30_" x1="1662.994" x2="657.351" y1="-583.843" y2="968.867" gradientTransform="matrix(1 0 0 -1 -547.1992 1319.1992)" gradientUnits="userSpaceOnUse"><stop offset="0" style="stop-color:#52bbe8"/><stop offset=".196" style="stop-color:#69c3eb"/><stop offset=".604" style="stop-color:#a3d8f1"/><stop offset="1" style="stop-color:#e1eff8"/></linearGradient><path d="M325.9,674.6c0-3.1-2.5-5.7-5.7-5.7c-3.1,0-5.7,2.5-5.7,5.7c0,3.1,2.5,5.7,5.7,5.7 C323.3,680.3,325.9,677.8,325.9,674.6z" class="st32"/><linearGradient id="SVGID_31_" x1="1801.811" x2="796.085" y1="-494.077" y2="1058.762" gradientTransform="matrix(1 0 0 -1 -547.1992 1319.1992)" gradientUnits="userSpaceOnUse"><stop offset="0" style="stop-color:#52bbe8"/><stop offset=".196" style="stop-color:#69c3eb"/><stop offset=".604" style="stop-color:#a3d8f1"/><stop offset="1" style="stop-color:#e1eff8"/></linearGradient><circle cx="517.2" cy="674.6" r="4.6" class="st33"/><linearGradient id="SVGID_32_" x1="1793.434" x2="787.59" y1="-499.664" y2="1053.356" gradientTransform="matrix(1 0 0 -1 -547.1992 1319.1992)" gradientUnits="userSpaceOnUse"><stop offset="0" style="stop-color:#52bbe8"/><stop offset=".196" style="stop-color:#69c3eb"/><stop offset=".604" style="stop-color:#a3d8f1"/><stop offset="1" style="stop-color:#e1eff8"/></linearGradient><path d="M607.8,845.2c0,4.3,3.5,7.8,7.8,7.8c4.3,0,7.8-3.5,7.8-7.8c0-4.3-3.5-7.8-7.8-7.8 C611.3,837.4,607.8,840.9,607.8,845.2z" class="st34"/><linearGradient id="SVGID_33_" x1="1749.953" x2="744.187" y1="-527.721" y2="1025.179" gradientTransform="matrix(1 0 0 -1 -547.1992 1319.1992)" gradientUnits="userSpaceOnUse"><stop offset="0" style="stop-color:#52bbe8"/><stop offset=".196" style="stop-color:#69c3eb"/><stop offset=".604" style="stop-color:#a3d8f1"/><stop offset="1" style="stop-color:#e1eff8"/></linearGradient><path d="M517.2,777.1c-6.2,0-11.2,5-11.2,11.2c0,6.2,5,11.2,11.2,11.2s11.2-5,11.2-11.2 C528.4,782.1,523.4,777.1,517.2,777.1z" class="st35"/><linearGradient id="SVGID_34_" x1="2027.387" x2="1021.732" y1="-347.889" y2="1204.839" gradientTransform="matrix(1 0 0 -1 -547.1992 1319.1992)" gradientUnits="userSpaceOnUse"><stop offset="0" style="stop-color:#52bbe8"/><stop offset=".196" style="stop-color:#69c3eb"/><stop offset=".604" style="stop-color:#a3d8f1"/><stop offset="1" style="stop-color:#e1eff8"/></linearGradient><path d="M911.1,800.5c6.7,0,12.1-5.4,12.1-12.1c0-6.7-5.4-12.1-12.1-12.1c-6.7,0-12.1,5.4-12.1,12.1 C898.9,795,904.4,800.5,911.1,800.5z" class="st36"/><linearGradient id="SVGID_35_" x1="2487.067" x2="1481.485" y1="-50.152" y2="1502.463" gradientTransform="matrix(1 0 0 -1 -547.1992 1319.1992)" gradientUnits="userSpaceOnUse"><stop offset="0" style="stop-color:#52bbe8"/><stop offset=".196" style="stop-color:#69c3eb"/><stop offset=".604" style="stop-color:#a3d8f1"/><stop offset="1" style="stop-color:#e1eff8"/></linearGradient><path d="M1600.4,839.1c-3.4,0-6.1,2.7-6.1,6.1s2.7,6.1,6.1,6.1c3.4,0,6.1-2.7,6.1-6.1 C1606.5,841.9,1603.8,839.1,1600.4,839.1z" class="st37"/><linearGradient id="SVGID_36_" x1="2591" x2="1584.999" y1="16.793" y2="1570.057" gradientTransform="matrix(1 0 0 -1 -547.1992 1319.1992)" gradientUnits="userSpaceOnUse"><stop offset="0" style="stop-color:#52bbe8"/><stop offset=".196" style="stop-color:#69c3eb"/><stop offset=".604" style="stop-color:#a3d8f1"/><stop offset="1" style="stop-color:#e1eff8"/></linearGradient><path d="M1600.4,624.9c3.9,0,7.1-3.2,7.1-7.1c0-3.9-3.2-7.1-7.1-7.1c-3.9,0-7.1,3.2-7.1,7.1 C1593.3,621.7,1596.5,624.9,1600.4,624.9z" class="st38"/><linearGradient id="SVGID_37_" x1="2634.335" x2="1628.552" y1="45.075" y2="1598.002" gradientTransform="matrix(1 0 0 -1 -547.1992 1319.1992)" gradientUnits="userSpaceOnUse"><stop offset="0" style="stop-color:#52bbe8"/><stop offset=".196" style="stop-color:#69c3eb"/><stop offset=".604" style="stop-color:#a3d8f1"/><stop offset="1" style="stop-color:#e1eff8"/></linearGradient><path d="M1698.9,660.8c-7.6,0-13.8,6.2-13.8,13.8s6.2,13.8,13.8,13.8c7.6,0,13.8-6.2,13.8-13.8 S1706.5,660.8,1698.9,660.8z" class="st39"/><linearGradient id="SVGID_38_" x1="2729.652" x2="1723.864" y1="106.809" y2="1659.743" gradientTransform="matrix(1 0 0 -1 -547.1992 1319.1992)" gradientUnits="userSpaceOnUse"><stop offset="0" style="stop-color:#52bbe8"/><stop offset=".196" style="stop-color:#69c3eb"/><stop offset=".604" style="stop-color:#a3d8f1"/><stop offset="1" style="stop-color:#e1eff8"/></linearGradient><path d="M1797.3,625.3c4.2,0,7.5-3.4,7.5-7.5c0-4.2-3.4-7.5-7.5-7.5c-4.2,0-7.5,3.4-7.5,7.5 C1789.8,621.9,1793.2,625.3,1797.3,625.3z" class="st40"/><linearGradient id="SVGID_39_" x1="2773.061" x2="1767.339" y1="134.976" y2="1687.808" gradientTransform="matrix(1 0 0 -1 -547.1992 1319.1992)" gradientUnits="userSpaceOnUse"><stop offset="0" style="stop-color:#52bbe8"/><stop offset=".196" style="stop-color:#69c3eb"/><stop offset=".604" style="stop-color:#a3d8f1"/><stop offset="1" style="stop-color:#e1eff8"/></linearGradient><path d="M1895.8,685.9c6.2,0,11.3-5.1,11.3-11.3s-5-11.3-11.3-11.3c-6.2,0-11.3,5.1-11.3,11.3 S1889.6,685.9,1895.8,685.9z" class="st41"/><linearGradient id="SVGID_40_" x1="2721.181" x2="1715.453" y1="101.37" y2="1654.211" gradientTransform="matrix(1 0 0 -1 -547.1992 1319.1992)" gradientUnits="userSpaceOnUse"><stop offset="0" style="stop-color:#52bbe8"/><stop offset=".196" style="stop-color:#69c3eb"/><stop offset=".604" style="stop-color:#a3d8f1"/><stop offset="1" style="stop-color:#e1eff8"/></linearGradient><path d="M1895.8,773.3c-8.3,0-15,6.7-15,15c0,8.3,6.7,15,15,15c8.3,0,15-6.7,15-15 C1910.9,780,1904.1,773.3,1895.8,773.3z" class="st42"/><linearGradient id="SVGID_41_" x1="1654.553" x2="648.909" y1="-589.327" y2="963.385" gradientTransform="matrix(1 0 0 -1 -547.1992 1319.1992)" gradientUnits="userSpaceOnUse"><stop offset="0" style="stop-color:#52bbe8"/><stop offset=".196" style="stop-color:#69c3eb"/><stop offset=".604" style="stop-color:#a3d8f1"/><stop offset="1" style="stop-color:#e1eff8"/></linearGradient><path d="M411.2,845.2c0,4.1,3.3,7.5,7.5,7.5c4.1,0,7.5-3.3,7.5-7.5c0-4.1-3.3-7.5-7.5-7.5 C414.6,837.7,411.2,841.1,411.2,845.2z" class="st43"/><linearGradient id="SVGID_42_" x1="1602.739" x2="596.993" y1="-623.037" y2="929.832" gradientTransform="matrix(1 0 0 -1 -547.1992 1319.1992)" gradientUnits="userSpaceOnUse"><stop offset="0" style="stop-color:#52bbe8"/><stop offset=".196" style="stop-color:#69c3eb"/><stop offset=".604" style="stop-color:#a3d8f1"/><stop offset="1" style="stop-color:#e1eff8"/></linearGradient><path d="M418.7,971.1c6.7,0,12.2-5.5,12.2-12.2c0-6.7-5.5-12.2-12.2-12.2c-6.7,0-12.2,5.5-12.2,12.2 C406.5,965.7,411.9,971.1,418.7,971.1z" class="st44"/><linearGradient id="SVGID_43_" x1="1888.624" x2="882.983" y1="-437.735" y2="1114.972" gradientTransform="matrix(1 0 0 -1 -547.1992 1319.1992)" gradientUnits="userSpaceOnUse"><stop offset="0" style="stop-color:#52bbe8"/><stop offset=".196" style="stop-color:#69c3eb"/><stop offset=".604" style="stop-color:#a3d8f1"/><stop offset="1" style="stop-color:#e1eff8"/></linearGradient><path d="M714.1,775.6c-7,0-12.8,5.7-12.8,12.8c0,7,5.7,12.8,12.8,12.8c7,0,12.8-5.7,12.8-12.8 C726.9,781.3,721.1,775.6,714.1,775.6z" class="st45"/><linearGradient id="SVGID_44_" x1="1932.212" x2="926.309" y1="-409.842" y2="1143.271" gradientTransform="matrix(1 0 0 -1 -547.1992 1319.1992)" gradientUnits="userSpaceOnUse"><stop offset="0" style="stop-color:#52bbe8"/><stop offset=".196" style="stop-color:#69c3eb"/><stop offset=".604" style="stop-color:#a3d8f1"/><stop offset="1" style="stop-color:#e1eff8"/></linearGradient><path d="M807.9,845.2c0,2.6,2.1,4.7,4.7,4.7c2.6,0,4.7-2.1,4.7-4.7c0-2.6-2.1-4.7-4.7-4.7 C810,840.5,807.9,842.6,807.9,845.2z" class="st46"/><linearGradient id="SVGID_45_" x1="1923.728" x2="917.862" y1="-415.257" y2="1137.796" gradientTransform="matrix(1 0 0 -1 -547.1992 1319.1992)" gradientUnits="userSpaceOnUse"><stop offset="0" style="stop-color:#52bbe8"/><stop offset=".196" style="stop-color:#69c3eb"/><stop offset=".604" style="stop-color:#a3d8f1"/><stop offset="1" style="stop-color:#e1eff8"/></linearGradient><circle cx="911.1" cy="1015.8" r="9.4" class="st47"/><linearGradient id="SVGID_46_" x1="1880.269" x2="874.461" y1="-443.356" y2="1109.609" gradientTransform="matrix(1 0 0 -1 -547.1992 1319.1992)" gradientUnits="userSpaceOnUse"><stop offset="0" style="stop-color:#52bbe8"/><stop offset=".196" style="stop-color:#69c3eb"/><stop offset=".604" style="stop-color:#a3d8f1"/><stop offset="1" style="stop-color:#e1eff8"/></linearGradient><path d="M812.6,944.5c-7.9,0-14.4,6.4-14.4,14.4c0,7.9,6.4,14.4,14.4,14.4c8,0,14.4-6.4,14.4-14.4 C827,951,820.5,944.5,812.6,944.5z" class="st48"/><linearGradient id="SVGID_47_" x1="2435.243" x2="1429.468" y1="-83.85" y2="1469.063" gradientTransform="matrix(1 0 0 -1 -547.1992 1319.1992)" gradientUnits="userSpaceOnUse"><stop offset="0" style="stop-color:#52bbe8"/><stop offset=".196" style="stop-color:#69c3eb"/><stop offset=".604" style="stop-color:#a3d8f1"/><stop offset="1" style="stop-color:#e1eff8"/></linearGradient><path d="M1608.6,958.9c0-4.5-3.7-8.2-8.2-8.2c-4.5,0-8.2,3.7-8.2,8.2c0,4.5,3.7,8.2,8.2,8.2 C1604.9,967.1,1608.6,963.4,1608.6,958.9z" class="st49"/><linearGradient id="SVGID_48_" x1="2625.878" x2="1620.09" y1="39.614" y2="1592.549" gradientTransform="matrix(1 0 0 -1 -547.1992 1319.1992)" gradientUnits="userSpaceOnUse"><stop offset="0" style="stop-color:#52bbe8"/><stop offset=".196" style="stop-color:#69c3eb"/><stop offset=".604" style="stop-color:#a3d8f1"/><stop offset="1" style="stop-color:#e1eff8"/></linearGradient><path d="M1797.3,855.9c5.9,0,10.6-4.8,10.6-10.7c0-5.9-4.8-10.6-10.6-10.6c-5.9,0-10.6,4.8-10.6,10.6 S1791.5,855.9,1797.3,855.9z" class="st50"/><linearGradient id="SVGID_49_" x1="2573.982" x2="1568.245" y1="6.033" y2="1558.888" gradientTransform="matrix(1 0 0 -1 -547.1992 1319.1992)" gradientUnits="userSpaceOnUse"><stop offset="0" style="stop-color:#52bbe8"/><stop offset=".196" style="stop-color:#69c3eb"/><stop offset=".604" style="stop-color:#a3d8f1"/><stop offset="1" style="stop-color:#e1eff8"/></linearGradient><path d="M1797.3,948.3c-5.9,0-10.6,4.8-10.6,10.6c0,5.9,4.8,10.6,10.6,10.6c5.9,0,10.6-4.8,10.6-10.6 C1808,953,1803.2,948.3,1797.3,948.3z" class="st51"/><linearGradient id="SVGID_50_" x1="1369.294" x2="362.652" y1="-775.598" y2="778.654" gradientTransform="matrix(1 0 0 -1 -547.1992 1319.1992)" gradientUnits="userSpaceOnUse"><stop offset="0" style="stop-color:#52bbe8"/><stop offset=".196" style="stop-color:#69c3eb"/><stop offset=".604" style="stop-color:#a3d8f1"/><stop offset="1" style="stop-color:#e1eff8"/></linearGradient><path d="M125.1,1015.8c0-1-0.8-1.9-1.9-1.9c-1,0-1.9,0.8-1.9,1.9c0,1,0.8,1.9,1.9,1.9 C124.3,1017.7,125.1,1016.8,125.1,1015.8z" class="st52"/><linearGradient id="SVGID_51_" x1="1463.959" x2="458.26" y1="-712.856" y2="839.94" gradientTransform="matrix(1 0 0 -1 -547.1992 1319.1992)" gradientUnits="userSpaceOnUse"><stop offset="0" style="stop-color:#52bbe8"/><stop offset=".196" style="stop-color:#69c3eb"/><stop offset=".604" style="stop-color:#a3d8f1"/><stop offset="1" style="stop-color:#e1eff8"/></linearGradient><circle cx="221.7" cy="958.9" r="6.1" class="st53"/><linearGradient id="SVGID_52_" x1="1507.484" x2="501.64" y1="-684.868" y2="868.152" gradientTransform="matrix(1 0 0 -1 -547.1992 1319.1992)" gradientUnits="userSpaceOnUse"><stop offset="0" style="stop-color:#52bbe8"/><stop offset=".196" style="stop-color:#69c3eb"/><stop offset=".604" style="stop-color:#a3d8f1"/><stop offset="1" style="stop-color:#e1eff8"/></linearGradient><circle cx="320.2" cy="1015.8" r="15.7" class="st54"/><linearGradient id="SVGID_53_" x1="1646.251" x2="640.369" y1="-595.025" y2="958.054" gradientTransform="matrix(1 0 0 -1 -547.1992 1319.1992)" gradientUnits="userSpaceOnUse"><stop offset="0" style="stop-color:#52bbe8"/><stop offset=".196" style="stop-color:#69c3eb"/><stop offset=".604" style="stop-color:#a3d8f1"/><stop offset="1" style="stop-color:#e1eff8"/></linearGradient><circle cx="517.2" cy="1015.8" r="9.5" class="st55"/><linearGradient id="SVGID_54_" x1="1741.495" x2="735.735" y1="-533.182" y2="1019.709" gradientTransform="matrix(1 0 0 -1 -547.1992 1319.1992)" gradientUnits="userSpaceOnUse"><stop offset="0" style="stop-color:#52bbe8"/><stop offset=".196" style="stop-color:#69c3eb"/><stop offset=".604" style="stop-color:#a3d8f1"/><stop offset="1" style="stop-color:#e1eff8"/></linearGradient><path d="M615.6,969.7c5.9,0,10.8-4.8,10.8-10.8c0-6-4.8-10.8-10.8-10.8c-6,0-10.8,4.8-10.8,10.8 C604.9,964.9,609.7,969.7,615.6,969.7z" class="st56"/><linearGradient id="SVGID_55_" x1="1784.877" x2="779.215" y1="-504.971" y2="1047.767" gradientTransform="matrix(1 0 0 -1 -547.1992 1319.1992)" gradientUnits="userSpaceOnUse"><stop offset="0" style="stop-color:#52bbe8"/><stop offset=".196" style="stop-color:#69c3eb"/><stop offset=".604" style="stop-color:#a3d8f1"/><stop offset="1" style="stop-color:#e1eff8"/></linearGradient><circle cx="714.1" cy="1015.8" r="12.3" class="st57"/><linearGradient id="SVGID_56_" x1="2339.956" x2="1334.081" y1="-145.627" y2="1407.441" gradientTransform="matrix(1 0 0 -1 -547.1992 1319.1992)" gradientUnits="userSpaceOnUse"><stop offset="0" style="stop-color:#52bbe8"/><stop offset=".196" style="stop-color:#69c3eb"/><stop offset=".604" style="stop-color:#a3d8f1"/><stop offset="1" style="stop-color:#e1eff8"/></linearGradient><path d="M1501.9,1024.2c4.7,0,8.5-3.8,8.5-8.5s-3.8-8.5-8.5-8.5c-4.7,0-8.5,3.8-8.5,8.5 S1497.2,1024.2,1501.9,1024.2z" class="st58"/><linearGradient id="SVGID_57_" x1="2478.706" x2="1472.79" y1="-55.766" y2="1497.366" gradientTransform="matrix(1 0 0 -1 -547.1992 1319.1992)" gradientUnits="userSpaceOnUse"><stop offset="0" style="stop-color:#52bbe8"/><stop offset=".196" style="stop-color:#69c3eb"/><stop offset=".604" style="stop-color:#a3d8f1"/><stop offset="1" style="stop-color:#e1eff8"/></linearGradient><path d="M1698.9,1025.1c5.2,0,9.4-4.2,9.4-9.4c0-5.2-4.2-9.4-9.4-9.4c-5.2,0-9.4,4.2-9.4,9.4 C1689.5,1020.9,1693.7,1025.1,1698.9,1025.1z" class="st59"/></g><linearGradient id="SVGID_58_" x1="2679.122" x2="2034.461" y1="-43.861" y2="951.494" gradientTransform="matrix(1 0 0 -1 -547.1992 1319.1992)" gradientUnits="userSpaceOnUse"><stop offset="0" style="stop-color:#52bbe8"/><stop offset=".196" style="stop-color:#69c3eb"/><stop offset=".604" style="stop-color:#a3d8f1"/><stop offset="1" style="stop-color:#e1eff8"/></linearGradient><circle cx="1540.4" cy="449.7" r="5" class="st60"/><linearGradient id="SVGID_59_" x1="2645.778" x2="2001.218" y1="-65.261" y2="929.938" gradientTransform="matrix(1 0 0 -1 -547.1992 1319.1992)" gradientUnits="userSpaceOnUse"><stop offset="0" style="stop-color:#52bbe8"/><stop offset=".196" style="stop-color:#69c3eb"/><stop offset=".604" style="stop-color:#a3d8f1"/><stop offset="1" style="stop-color:#e1eff8"/></linearGradient><circle cx="1540.4" cy="522.6" r="8.8" class="st61"/><linearGradient id="SVGID_60_" x1="2740.017" x2="2095.574" y1="-3.985" y2="991.034" gradientTransform="matrix(1 0 0 -1 -547.1992 1319.1992)" gradientUnits="userSpaceOnUse"><stop offset="0" style="stop-color:#52bbe8"/><stop offset=".196" style="stop-color:#69c3eb"/><stop offset=".604" style="stop-color:#a3d8f1"/><stop offset="1" style="stop-color:#e1eff8"/></linearGradient><path d="M1603.5,417c2,0,3.7-1.7,3.7-3.7c0-2-1.7-3.7-3.7-3.7c-2,0-3.7,1.7-3.7,3.7 C1599.8,415.3,1601.4,417,1603.5,417z" class="st62"/><linearGradient id="SVGID_61_" x1="2768.05" x2="2123.391" y1="13.742" y2="1009.094" gradientTransform="matrix(1 0 0 -1 -547.1992 1319.1992)" gradientUnits="userSpaceOnUse"><stop offset="0" style="stop-color:#52bbe8"/><stop offset=".196" style="stop-color:#69c3eb"/><stop offset=".604" style="stop-color:#a3d8f1"/><stop offset="1" style="stop-color:#e1eff8"/></linearGradient><circle cx="1666.6" cy="449.7" r="6.8" class="st63"/><linearGradient id="SVGID_62_" x1="2734.834" x2="2090.124" y1="-7.854" y2="987.576" gradientTransform="matrix(1 0 0 -1 -547.1992 1319.1992)" gradientUnits="userSpaceOnUse"><stop offset="0" style="stop-color:#52bbe8"/><stop offset=".196" style="stop-color:#69c3eb"/><stop offset=".604" style="stop-color:#a3d8f1"/><stop offset="1" style="stop-color:#e1eff8"/></linearGradient><circle cx="1666.6" cy="522.6" r="8.1" class="st64"/><linearGradient id="SVGID_63_" x1="2829.015" x2="2184.507" y1="53.512" y2="1048.629" gradientTransform="matrix(1 0 0 -1 -547.1992 1319.1992)" gradientUnits="userSpaceOnUse"><stop offset="0" style="stop-color:#52bbe8"/><stop offset=".196" style="stop-color:#69c3eb"/><stop offset=".604" style="stop-color:#a3d8f1"/><stop offset="1" style="stop-color:#e1eff8"/></linearGradient><circle cx="1729.7" cy="413.3" r="4.2" class="st65"/><linearGradient id="SVGID_64_" x1="2856.83" x2="2212.358" y1="71.575" y2="1066.639" gradientTransform="matrix(1 0 0 -1 -547.1992 1319.1992)" gradientUnits="userSpaceOnUse"><stop offset="0" style="stop-color:#52bbe8"/><stop offset=".196" style="stop-color:#69c3eb"/><stop offset=".604" style="stop-color:#a3d8f1"/><stop offset="1" style="stop-color:#e1eff8"/></linearGradient><path d="M1792.8,454.6c2.7,0,4.9-2.2,4.9-4.9c0-2.7-2.2-4.9-4.9-4.9c-2.7,0-4.9,2.2-4.9,4.9 S1790.1,454.6,1792.8,454.6z" class="st66"/><linearGradient id="SVGID_65_" x1="2823.788" x2="2179.047" y1="49.716" y2="1045.195" gradientTransform="matrix(1 0 0 -1 -547.1992 1319.1992)" gradientUnits="userSpaceOnUse"><stop offset="0" style="stop-color:#52bbe8"/><stop offset=".196" style="stop-color:#69c3eb"/><stop offset=".604" style="stop-color:#a3d8f1"/><stop offset="1" style="stop-color:#e1eff8"/></linearGradient><circle cx="1792.8" cy="522.6" r="3.5" class="st67"/><linearGradient id="SVGID_66_" x1="2918.093" x2="2273.409" y1="110.883" y2="1106.274" gradientTransform="matrix(1 0 0 -1 -547.1992 1319.1992)" gradientUnits="userSpaceOnUse"><stop offset="0" style="stop-color:#52bbe8"/><stop offset=".196" style="stop-color:#69c3eb"/><stop offset=".604" style="stop-color:#a3d8f1"/><stop offset="1" style="stop-color:#e1eff8"/></linearGradient><path d="M1856,416.5c1.8,0,3.3-1.5,3.3-3.3c0-1.8-1.5-3.3-3.3-3.3c-1.8,0-3.3,1.5-3.3,3.3 C1852.7,415.1,1854.1,416.5,1856,416.5z" class="st68"/><linearGradient id="SVGID_67_" x1="2673.695" x2="2029.044" y1="-47.349" y2="947.989" gradientTransform="matrix(1 0 0 -1 -547.1992 1319.1992)" gradientUnits="userSpaceOnUse"><stop offset="0" style="stop-color:#52bbe8"/><stop offset=".196" style="stop-color:#69c3eb"/><stop offset=".604" style="stop-color:#a3d8f1"/><stop offset="1" style="stop-color:#e1eff8"/></linearGradient><path d="M1603.5,555.7c-1.9,0-3.4,1.5-3.4,3.4c0,1.9,1.5,3.4,3.4,3.4c1.9,0,3.4-1.5,3.4-3.4 C1606.9,557.2,1605.3,555.7,1603.5,555.7z" class="st69"/><linearGradient id="SVGID_68_" x1="2640.331" x2="1995.819" y1="-68.723" y2="926.403" gradientTransform="matrix(1 0 0 -1 -547.1992 1319.1992)" gradientUnits="userSpaceOnUse"><stop offset="0" style="stop-color:#52bbe8"/><stop offset=".196" style="stop-color:#69c3eb"/><stop offset=".604" style="stop-color:#a3d8f1"/><stop offset="1" style="stop-color:#e1eff8"/></linearGradient><path d="M1603.5,638.2c3.4,0,6.2-2.8,6.2-6.2c0-3.4-2.8-6.2-6.2-6.2c-3.5,0-6.2,2.8-6.2,6.2 C1597.2,635.4,1600,638.2,1603.5,638.2z" class="st70"/><linearGradient id="SVGID_69_" x1="2668.202" x2="2023.653" y1="-50.74" y2="944.442" gradientTransform="matrix(1 0 0 -1 -547.1992 1319.1992)" gradientUnits="userSpaceOnUse"><stop offset="0" style="stop-color:#52bbe8"/><stop offset=".196" style="stop-color:#69c3eb"/><stop offset=".604" style="stop-color:#a3d8f1"/><stop offset="1" style="stop-color:#e1eff8"/></linearGradient><path d="M1670.5,668.4c0-2.2-1.8-3.9-3.9-3.9c-2.2,0-3.9,1.8-3.9,3.9c0,2.2,1.8,3.9,3.9,3.9 C1668.8,672.3,1670.5,670.5,1670.5,668.4z" class="st71"/><linearGradient id="SVGID_70_" x1="2762.649" x2="2117.966" y1="10.214" y2="1005.602" gradientTransform="matrix(1 0 0 -1 -547.1992 1319.1992)" gradientUnits="userSpaceOnUse"><stop offset="0" style="stop-color:#52bbe8"/><stop offset=".196" style="stop-color:#69c3eb"/><stop offset=".604" style="stop-color:#a3d8f1"/><stop offset="1" style="stop-color:#e1eff8"/></linearGradient><circle cx="1729.7" cy="559" r="9.2" class="st72"/><linearGradient id="SVGID_71_" x1="2851.597" x2="2206.884" y1="67.785" y2="1063.221" gradientTransform="matrix(1 0 0 -1 -547.1992 1319.1992)" gradientUnits="userSpaceOnUse"><stop offset="0" style="stop-color:#52bbe8"/><stop offset=".196" style="stop-color:#69c3eb"/><stop offset=".604" style="stop-color:#a3d8f1"/><stop offset="1" style="stop-color:#e1eff8"/></linearGradient><circle cx="1856" cy="559" r="6.8" class="st73"/><linearGradient id="SVGID_72_" x1="2818.329" x2="2173.631" y1="46.27" y2="1041.682" gradientTransform="matrix(1 0 0 -1 -547.1992 1319.1992)" gradientUnits="userSpaceOnUse"><stop offset="0" style="stop-color:#52bbe8"/><stop offset=".196" style="stop-color:#69c3eb"/><stop offset=".604" style="stop-color:#a3d8f1"/><stop offset="1" style="stop-color:#e1eff8"/></linearGradient><path d="M1856,639.9c4.4,0,8-3.6,8-8c0-4.4-3.6-8-8-8c-4.4,0-8,3.6-8,8C1847.9,636.3,1851.5,639.9,1856,639.9z" class="st74"/><linearGradient id="SVGID_73_" x1="2579.242" x2="1934.726" y1="-108.293" y2="886.837" gradientTransform="matrix(1 0 0 -1 -547.1992 1319.1992)" gradientUnits="userSpaceOnUse"><stop offset="0" style="stop-color:#52bbe8"/><stop offset=".196" style="stop-color:#69c3eb"/><stop offset=".604" style="stop-color:#a3d8f1"/><stop offset="1" style="stop-color:#e1eff8"/></linearGradient><path d="M1545.6,668.4c0-2.9-2.3-5.2-5.2-5.2s-5.2,2.3-5.2,5.2c0,2.9,2.4,5.2,5.2,5.2 C1543.3,673.6,1545.6,671.2,1545.6,668.4z" class="st75"/><linearGradient id="SVGID_74_" x1="2729.376" x2="2084.715" y1="-11.295" y2="984.06" gradientTransform="matrix(1 0 0 -1 -547.1992 1319.1992)" gradientUnits="userSpaceOnUse"><stop offset="0" style="stop-color:#52bbe8"/><stop offset=".196" style="stop-color:#69c3eb"/><stop offset=".604" style="stop-color:#a3d8f1"/><stop offset="1" style="stop-color:#e1eff8"/></linearGradient><circle cx="1729.7" cy="631.9" r="4.2" class="st76"/><linearGradient id="SVGID_75_" x1="2757.183" x2="2112.563" y1="6.779" y2="1002.071" gradientTransform="matrix(1 0 0 -1 -547.1992 1319.1992)" gradientUnits="userSpaceOnUse"><stop offset="0" style="stop-color:#52bbe8"/><stop offset=".196" style="stop-color:#69c3eb"/><stop offset=".604" style="stop-color:#a3d8f1"/><stop offset="1" style="stop-color:#e1eff8"/></linearGradient><path d="M1792.8,672.9c2.5,0,4.5-2,4.5-4.5s-2-4.5-4.5-4.5c-2.5,0-4.5,2-4.5,4.5S1790.3,672.9,1792.8,672.9z" class="st77"/><linearGradient id="SVGID_76_" x1="2635.129" x2="1990.306" y1="-72.559" y2="923.047" gradientTransform="matrix(1 0 0 -1 -547.1992 1319.1992)" gradientUnits="userSpaceOnUse"><stop offset="0" style="stop-color:#52bbe8"/><stop offset=".196" style="stop-color:#69c3eb"/><stop offset=".604" style="stop-color:#a3d8f1"/><stop offset="1" style="stop-color:#e1eff8"/></linearGradient><path d="M1666.6,734.5c-3.7,0-6.7,3-6.7,6.7c0,3.7,3,6.7,6.7,6.7c3.7,0,6.7-3,6.7-6.7 C1673.3,737.5,1670.3,734.5,1666.6,734.5z" class="st78"/><linearGradient id="SVGID_77_" x1="2662.787" x2="2018.249" y1="-54.248" y2="940.916" gradientTransform="matrix(1 0 0 -1 -547.1992 1319.1992)" gradientUnits="userSpaceOnUse"><stop offset="0" style="stop-color:#52bbe8"/><stop offset=".196" style="stop-color:#69c3eb"/><stop offset=".604" style="stop-color:#a3d8f1"/><stop offset="1" style="stop-color:#e1eff8"/></linearGradient><path d="M1722.7,777.7c0,3.9,3.1,7,7,7c3.9,0,7-3.1,7-7c0-3.9-3.1-7-7-7C1725.9,770.7,1722.7,773.8,1722.7,777.7z" class="st79"/><linearGradient id="SVGID_78_" x1="2723.932" x2="2079.308" y1="-14.759" y2="980.54" gradientTransform="matrix(1 0 0 -1 -547.1992 1319.1992)" gradientUnits="userSpaceOnUse"><stop offset="0" style="stop-color:#52bbe8"/><stop offset=".196" style="stop-color:#69c3eb"/><stop offset=".604" style="stop-color:#a3d8f1"/><stop offset="1" style="stop-color:#e1eff8"/></linearGradient><path d="M1792.8,747.1c3.3,0,5.9-2.6,5.9-5.9c0-3.3-2.6-5.9-5.9-5.9c-3.3,0-5.9,2.6-5.9,5.9 C1787,744.5,1789.6,747.1,1792.8,747.1z" class="st80"/><linearGradient id="SVGID_79_" x1="2751.794" x2="2107.127" y1="3.234" y2="998.599" gradientTransform="matrix(1 0 0 -1 -547.1992 1319.1992)" gradientUnits="userSpaceOnUse"><stop offset="0" style="stop-color:#52bbe8"/><stop offset=".196" style="stop-color:#69c3eb"/><stop offset=".604" style="stop-color:#a3d8f1"/><stop offset="1" style="stop-color:#e1eff8"/></linearGradient><path d="M1856,785.9c4.6,0,8.3-3.7,8.3-8.3c0-4.6-3.7-8.3-8.3-8.3c-4.6,0-8.3,3.7-8.3,8.3 C1847.7,782.2,1851.4,785.9,1856,785.9z" class="st81"/><g><linearGradient id="SVGID_80_" x1="2706.92" x2="2062.306" y1="-25.766" y2="969.517" gradientTransform="matrix(1 0 0 -1 -547.1992 1319.1992)" gradientUnits="userSpaceOnUse"><stop offset="0" style="stop-color:#52bbe8"/><stop offset=".196" style="stop-color:#69c3eb"/><stop offset=".604" style="stop-color:#a3d8f1"/><stop offset="1" style="stop-color:#e1eff8"/></linearGradient><path d="M1603.5,559.3l-0.1-0.1l-63.3-36.5v-73.2l0.1-0.1l63.3-36.5l0.1,0.1l63.3,36.5v73.2l-0.1,0.1 L1603.5,559.3z M1540.6,522.4l62.8,36.3l62.8-36.3v-72.6l-62.8-36.3l-62.8,36.3V522.4z" class="st82"/></g><g><linearGradient id="SVGID_81_" x1="2795.839" x2="2151.238" y1="31.851" y2="1027.112" gradientTransform="matrix(1 0 0 -1 -547.1992 1319.1992)" gradientUnits="userSpaceOnUse"><stop offset="0" style="stop-color:#52bbe8"/><stop offset=".196" style="stop-color:#69c3eb"/><stop offset=".604" style="stop-color:#a3d8f1"/><stop offset="1" style="stop-color:#e1eff8"/></linearGradient><path d="M1729.7,559.3l-0.1-0.1l-63.3-36.5v-73.2l0.1-0.1l63.3-36.5l0.1,0.1l63.3,36.5v73.2l-0.1,0.1 L1729.7,559.3z M1666.9,522.4l62.8,36.3l62.8-36.3v-72.6l-62.8-36.3l-62.8,36.3V522.4z" class="st83"/></g><g><linearGradient id="SVGID_82_" x1="2884.793" x2="2240.168" y1="89.415" y2="1084.715" gradientTransform="matrix(1 0 0 -1 -547.1992 1319.1992)" gradientUnits="userSpaceOnUse"><stop offset="0" style="stop-color:#52bbe8"/><stop offset=".196" style="stop-color:#69c3eb"/><stop offset=".604" style="stop-color:#a3d8f1"/><stop offset="1" style="stop-color:#e1eff8"/></linearGradient><path d="M1856,559.3l-0.1-0.1l-63.3-36.5v-73.2l0.1-0.1l63.3-36.5l0.1,0.1l63.3,36.5v73.2l-0.1,0.1L1856,559.3z M1793.1,522.4l62.8,36.3l62.8-36.3v-72.6l-62.8-36.3l-62.8,36.3V522.4z" class="st84"/></g><g><linearGradient id="SVGID_83_" x1="2701.517" x2="2056.887" y1="-29.291" y2="966.015" gradientTransform="matrix(1 0 0 -1 -547.1992 1319.1992)" gradientUnits="userSpaceOnUse"><stop offset="0" style="stop-color:#52bbe8"/><stop offset=".196" style="stop-color:#69c3eb"/><stop offset=".604" style="stop-color:#a3d8f1"/><stop offset="1" style="stop-color:#e1eff8"/></linearGradient><path d="M1666.6,668.7l-0.1-0.1l-63.3-36.5v-73.2l0.1-0.1l63.3-36.5l0.1,0.1l63.3,36.5v73.2l-0.1,0.1 L1666.6,668.7z M1603.8,631.8l62.8,36.3l62.8-36.3v-72.6l-62.8-36.3l-62.8,36.3V631.8z" class="st85"/></g><g><linearGradient id="SVGID_84_" x1="2790.45" x2="2145.816" y1="28.302" y2="1023.616" gradientTransform="matrix(1 0 0 -1 -547.1992 1319.1992)" gradientUnits="userSpaceOnUse"><stop offset="0" style="stop-color:#52bbe8"/><stop offset=".196" style="stop-color:#69c3eb"/><stop offset=".604" style="stop-color:#a3d8f1"/><stop offset="1" style="stop-color:#e1eff8"/></linearGradient><path d="M1792.8,668.7l-0.1-0.1l-63.3-36.5v-73.2l0.1-0.1l63.3-36.5l0.1,0.1l63.3,36.5v73.2l-0.1,0.1 L1792.8,668.7z M1730,631.8l62.8,36.3l62.8-36.3v-72.6l-62.8-36.3l-62.8,36.3V631.8z" class="st86"/></g><g><linearGradient id="SVGID_85_" x1="2696.088" x2="2051.474" y1="-32.783" y2="962.5" gradientTransform="matrix(1 0 0 -1 -547.1992 1319.1992)" gradientUnits="userSpaceOnUse"><stop offset="0" style="stop-color:#52bbe8"/><stop offset=".196" style="stop-color:#69c3eb"/><stop offset=".604" style="stop-color:#a3d8f1"/><stop offset="1" style="stop-color:#e1eff8"/></linearGradient><path d="M1729.7,778l-0.1-0.1l-63.3-36.5v-73.2l0.1-0.1l63.3-36.5l0.1,0.1l63.3,36.5v73.2l-0.1,0.1L1729.7,778z M1666.9,741.1l62.8,36.3l62.8-36.3v-72.6l-62.8-36.3l-62.8,36.3V741.1z" class="st87"/></g><g><linearGradient id="SVGID_86_" x1="2785.024" x2="2140.403" y1="24.811" y2="1020.103" gradientTransform="matrix(1 0 0 -1 -547.1992 1319.1992)" gradientUnits="userSpaceOnUse"><stop offset="0" style="stop-color:#52bbe8"/><stop offset=".196" style="stop-color:#69c3eb"/><stop offset=".604" style="stop-color:#a3d8f1"/><stop offset="1" style="stop-color:#e1eff8"/></linearGradient><path d="M1856,778l-0.1-0.1l-63.3-36.5v-73.2l0.1-0.1l63.3-36.5l0.1,0.1l63.3,36.5v73.2l-0.1,0.1L1856,778z M1793.1,741.1l62.8,36.3l62.8-36.3v-72.6l-62.8-36.3l-62.8,36.3V741.1z" class="st88"/></g></g></g><g id="var1_x5F_a" class="st89"><polygon points="1738.1 446 1725.5 421.4 1738.8 396 783.8 396 797.2 420.6 783.8 446" class="st90"/><text class="st91 st92 st93" transform="matrix(1 0 0 1 1180.5452 432.3191)">Industries</text></g><g id="var1_x5F_b"><polygon points="1727.8 421.4 1738.7 409.6 1738.8 396 784 396 784 409.4 795 421.4 784 432.6 784 446 1738.1 446 1738.3 432.1" class="st94"/><text class="st0 st92 st93" transform="matrix(1 0 0 1 1180.5452 432.3191)">Industries</text></g><g id="var1_x5F_c" class="st89"><g class="st95"><polygon points="1749.8 421.4 1739 409.6 1739 396 784 396 784 409.4 773 421.4 784 432.6 784 446 1739 446 1739 432.8" class="st94"/></g><text class="st91 st92 st93" transform="matrix(1 0 0 1 1180.5452 432.3191)">Industries</text></g><g><polygon points="685 727 578 752 578 682 685 707" class="st94"/><rect width="237" height="20" x="685" y="707" class="st94"/><rect width="237" height="20" x="685" y="707" class="st96"/><polygon points="685 679 578 604 578 534 685 659" class="st94"/><rect width="237" height="20" x="685" y="659" class="st94"/><rect width="237" height="20" x="685" y="659" class="st96"/><polygon points="685 703 578 678 578 608 685 683" class="st97"/><rect width="237" height="20" x="685" y="683" class="st97"/><rect width="237" height="20" x="685" y="683" class="st96"/><polygon points="685 655 578 530 578 460 685 635" class="st97"/><rect width="237" height="20" x="685" y="635" class="st97"/><rect width="237" height="20" x="685" y="635" class="st96"/><polygon points="685 755 578 830 578 900 685 775" class="st94"/><rect width="237" height="20" x="685" y="755" class="st94"/><rect width="237" height="20" x="685" y="755" class="st96"/><polygon points="685 731 578 756 578 826 685 751" class="st97"/><rect width="237" height="20" x="685" y="731" class="st97"/><rect width="237" height="20" x="685" y="731" class="st96"/><polygon points="685 779 578 904 578 974 685 799" class="st97"/><rect width="237" height="20" x="685" y="779" class="st97"/><rect width="237" height="20" x="685" y="779" class="st96"/></g><g id="where_used_3_"><g><rect width="384" height="66" x="192" y="462" class="st0"/><path d="M574,464v62H194v-62H574 M578,460H190v70h388V460L578,460z" class="st97"/></g><g><text class="st98 st99 st100" transform="matrix(1 0 0 1 275.1116 502.5212)">Data Science</text></g><g><rect width="384" height="66" x="192" y="536" class="st0"/><path d="M574,538v62H194v-62H574 M578,534H190v70h388V534L578,534z" class="st94"/></g><g><text class="st98 st99 st100" transform="matrix(1 0 0 1 275.1116 575.5212)">Deep Learning</text></g><g><rect width="384" height="66" x="192" y="610" class="st0"/><path d="M574,612v62H194v-62H574 M578,608H190v70h388V608L578,608z" class="st97"/></g><g><text class="st98 st99 st100" transform="matrix(1 0 0 1 275.1116 649.5212)">Image Processing</text></g><g><rect width="384" height="66" x="192" y="684" class="st0"/><path d="M574,686v62H194v-62H574 M578,682H190v70h388V682L578,682z" class="st94"/></g><g><text class="st98 st99 st100" transform="matrix(1 0 0 1 275.1116 723.5212)">Audio &amp; Video Processing</text></g><g><rect width="384" height="66" x="192" y="758" class="st0"/><path d="M574,760v62H194v-62H574 M578,756H190v70h388V756L578,756z" class="st97"/></g><g><text class="st98 st99 st100" transform="matrix(1 0 0 1 275.1116 796.5212)">NLP, Text Processing</text></g><g><rect width="384" height="66" x="192" y="832" class="st0"/><path d="M574,834v62H194v-62H574 M578,830H190v70h388V830L578,830z" class="st94"/></g><g><text class="st98 st99 st100" transform="matrix(1 0 0 1 275.1116 870.5212)">Gene Sequencing</text></g><g><rect width="384" height="66" x="192" y="906" class="st0"/><path d="M574,908v62H194v-62H574 M578,904H190v70h388V904L578,904z" class="st97"/></g><g><text class="st98 st99 st100" transform="matrix(1 0 0 1 275.1116 945.5212)">Other Use Cases</text></g><g><rect width="72" height="70" x="190" y="460" class="st97"/></g><g><rect width="72" height="70" x="190" y="534" class="st94"/></g><g><rect width="72" height="70" x="190" y="608" class="st97"/></g><g><rect width="72" height="70" x="190" y="682" class="st94"/></g><g><rect width="72" height="70" x="190" y="756" class="st97"/></g><g><rect width="72" height="70" x="190" y="830" class="st94"/></g><g><rect width="72" height="70" x="190" y="904" class="st97"/></g><g id="data_4_"><rect width="22" height="15" x="215" y="475" class="st101"/><g><rect width="16" height="12" x="198" y="504" class="st101"/></g><g><rect width="16" height="12" x="218" y="504" class="st101"/></g><g><rect width="16" height="12" x="238" y="504" class="st101"/></g><line x1="226" x2="226" y1="490" y2="504" class="st101"/><polyline points="206 503 206 498 246 498 246 504" class="st101"/></g><g id="learning_4_"><path d="M209.8,586.5c0,0,2-4.1,0.3-7c-1.7-2.9-11-12-8.7-21.3c2.3-9.3,10.2-20.7,24.4-19.3 c14.2,1.5,22.6,10.8,22.6,15.8c0,5-2.6,9.3-1.7,11.4c0.9,2,4.6,7,4.4,8.2c-0.3,1.2-3.8,2.3-3.8,2.3s0.3,3.2,0,4.1 c-0.3,0.9-2,1.8-2,1.8s1.2,0.6,0.9,2c-0.3,1.5-2,2.3-2,2.3s1.7,3.2,0,4.4c-1.7,1.2-11-0.6-12.2,0.6c-1.2,1.2-3.1,6.3-3.1,6.3" class="st102"/><path d="M214.5,572.7c0,0,1.7-1.6,2.5-3.3c0.9-1.8-1.1-3.4-1.1-3.4s-8.5,1.7-8.5-5.3c0-7,4.4-14.9,15.4-15.2 c11-0.3,18,3.8,18.3,7.6c0.6,8.5-9.3,7.4-13.1,8.5C218.8,564.4,219.6,571.2,214.5,572.7z" class="st102"/><path d="M230.4,553.6c0,0-2.4,1.4-1.2,4.1c1.2,2.7,5.5,2.7,5.5,2.7" class="st103"/><path d="M218.1,553.5c0,0-0.8,3.6-4.8,2.4c-2.4-0.7-2.7-4.6-2.7-4.6" class="st103"/></g><g id="image_4_"><g><path d="M254,658v-5h-3.3c-0.3-2-0.9-3.5-1.7-4.8l2.4-2.6l-4-4.1l-2.3,2.2c-1.3-0.9-3.2-1.5-4.2-1.9V639h-6v2.6 c-1,0.3-3,0.9-4.4,1.7l-2.3-2.4l-3.9,4l2.3,2.8c-1,1.4-1.6,3.3-2,5.3H222v5h2.8c0.4,2,1,3,1.9,4.3l-2.3,2.2l4,3.9l2.2-2.4 c1.4,0.8,3.4,1.4,4.4,1.7v3.3h6v-3.5c1-0.4,2.9-1,4.2-1.9l2.3,2.3l4-4l-2.4-2.2c0.7-1.2,1.3-1.8,1.6-3.8L254,658L254,658z" class="st103"/><circle cx="237.8" cy="655" r="6.7" class="st103"/></g><polyline points="218 659 202 659 202 618 242 618 242 635" class="st103"/><polyline points="205.3 645.3 215.6 634.8 221.4 640.6" class="st103"/><polyline points="223.5 637.7 230.2 630.9 235.4 636.1" class="st103"/><circle cx="211.8" cy="627" r="4" class="st103"/></g><g id="audio_4_"><path d="M214.8,715c-1,0.6-1.8,0.1-1.8-1v-11c0-1.1,0.9-1.6,1.9-1.1l9.5,5.2c1,0.5,1,1.5,0,2.1L214.8,715z" class="st103"/><g><path d="M254,732v-5h-3.1c-0.3-2-0.9-3.5-1.7-4.8l2.4-2.6l-4-4.1l-2.3,2.2c-1.3-0.9-3.2-1.5-4.2-1.9V713h-6v2.6 c-1,0.3-2.9,0.9-4.3,1.7l-2.2-2.4l-3.9,4l2.3,2.8c-1,1.4-1.6,3.3-2,5.3H222v5h2.9c0.4,2,1,3,1.9,4.3l-2.3,2.2l4,3.9l2.1-2.4 c1.4,0.8,3.3,1.4,4.3,1.7v3.3h6v-3.5c1-0.4,3-1,4.2-1.9l2.3,2.3l4-4l-2.4-2.2c0.7-1.2,1.3-1.8,1.6-3.8L254,732L254,732z" class="st103"/><circle cx="238" cy="729" r="6.7" class="st103"/></g><path d="M217,726.5c-9.9,0-18-8.1-18-18c0-9.9,8.1-18,18-18c9.9,0,18,8.1,18,18" class="st103"/></g><g id="text_4_"><g><path d="M254,808v-5h-3.3c-0.3-2-0.9-3.5-1.7-4.8l2.4-2.6l-4-4.1l-2.3,2.2c-1.3-0.9-3.2-1.5-4.2-1.9V789h-6v2.6 c-1,0.3-3,0.9-4.4,1.7l-2.3-2.4l-3.9,4l2.3,2.8c-1,1.4-1.6,3.3-2,5.3H222v5h2.8c0.4,2,1,3,1.9,4.3l-2.3,2.2l4,3.9l2.2-2.4 c1.4,0.8,3.4,1.4,4.4,1.7v3.3h6v-3.5c1-0.4,2.9-1,4.2-1.9l2.3,2.3l4-4l-2.4-2.2c0.7-1.2,1.3-1.8,1.6-3.8L254,808L254,808z" class="st103"/><circle cx="237.8" cy="805" r="6.7" class="st103"/></g><polyline points="219 812 202 812 202 765 240 765 240 784" class="st103"/><g><line x1="209" x2="233" y1="774" y2="774" class="st103"/><line x1="209" x2="233" y1="781" y2="781" class="st103"/><line x1="209" x2="217" y1="796" y2="796" class="st103"/><line x1="209" x2="223" y1="788" y2="788" class="st103"/><line x1="209" x2="217" y1="803" y2="803" class="st103"/></g></g><g id="gene_4_"><path d="M214.6,894.8c0,0,4.2-4.4,3.2-10.2c-1.1-5.8-9.5-21.3-1.5-29.3l0,0c8-8,23.6,0.5,29.3,1.5 c5.8,1.1,10.2-3.2,10.2-3.2" class="st102"/><path d="M196.2,876.4c0,0,4.4-4.2,10.2-3.2c5.8,1.1,21.3,9.5,29.3,1.6l0,0c8-8-0.5-23.6-1.5-29.3 c-1.1-5.8,3.2-10.2,3.2-10.2" class="st102"/><line x1="231.3" x2="219.3" y1="877.1" y2="865.2" class="st102"/><line x1="237.8" x2="225.8" y1="870.6" y2="858.7" class="st102"/><line x1="217.7" x2="209" y1="886.3" y2="877.6" class="st102"/><line x1="246.4" x2="238.3" y1="856.5" y2="848.4" class="st102"/><line x1="221" x2="212.8" y1="873.3" y2="865.2" class="st102"/><line x1="234" x2="225.8" y1="860.3" y2="852.2" class="st102"/><line x1="231.3" x2="216.6" y1="870.6" y2="855.9" class="st102"/><line x1="249.2" x2="235.6" y1="852.7" y2="839.1" class="st102"/><line x1="212.4" x2="198.9" y1="888.4" y2="874.8" class="st102"/></g><g id="folder_4_"><path d="M243.1,932H220v-4.7c0-1-0.6-2.3-1.7-2.3h-17.5c-1,0-1.9,1.2-1.9,2.3v8.4v4.7v18.4c0,1,0.8,2.3,1.9,2.3 h42.3c1,0,1.9-1.2,1.9-2.3v-25.1C245,932.6,244.2,932,243.1,932z" class="st103"/><path d="M249,952h2.1c1,0,1.9-1.2,1.9-2.3v-25.1c0-1-0.8-1.7-1.9-1.7H228v-4.7c0-1-0.6-2.3-1.7-2.3h-17.5 c-1,0-1.9,1.2-1.9,2.3v2.7" class="st103"/></g><g><polygon points="585 495.4 574 483.4 574 506.6" class="st0"/></g><g><polygon points="585 568.9 574 556.9 574 580.1" class="st0"/></g><g><polygon points="585 642.9 574 630.9 574 654.1" class="st0"/></g><g><polygon points="585 716.9 574 704.9 574 728.1" class="st0"/></g><g><polygon points="585 790.9 574 778.9 574 802.1" class="st0"/></g><g><polygon points="585 864.9 574 852.9 574 876.1" class="st0"/></g><g><polygon points="585 938.9 574 926.9 574 950.1" class="st0"/></g></g><rect width="1837.2" height="37.2" x="40.5" y="1004.2" class="st104"/><text class="st105 st99 st106" transform="matrix(1 0 0 1 40.4866 1017.6541)">Sources:</text><text class="st105 st99 st106" transform="matrix(1 0 0 1 116.301 1017.6541)">anaconda.com, pypistats.org</text><text class="st105 st99 st106" transform="matrix(1 0 0 1 40.4866 1039.2537)">Special thanks:</text><text class="st105 st99 st106" transform="matrix(1 0 0 1 164.3157 1039.2537)">Ralf Gommers, Inessa Pawson, Shaloo Shalini</text><g><g><image style="overflow:visible;opacity:.25;enable-background:new" width="991" height="527" transform="matrix(1 0 0 1 768.0002 454.9998)" xlink:href="5219A363.png"/><g><path d="M1725.6,657.8l-58.8-34.3c-3.9-2.2-8.9-3.5-14.3-3.5c-1.9,0-3.8,0.2-5.5,0.4c3.7-5.1,6-11.8,6-18v-68.4 c0-9.7-5.6-20.3-13.4-24.8l-58.8-34.2c-3.9-2.2-8.9-3.5-14.3-3.5c-5.4,0-10.6,1.2-14.5,3.5l-60.4,34.3 c-5,2.9-10.4,8.7-13.4,15.2c-2.2-6.4-6.4-12.2-11.7-15.2l-58.8-34.2c-3.9-2.2-8.9-3.5-14.4-3.5c-5.4,0-10.6,1.2-14.5,3.5 l-60.4,34.3c-5,2.9-10.4,8.7-13.4,15.2c-2.2-6.4-6.4-12.2-11.7-15.2l-58.8-34.2c-3.9-2.2-8.9-3.5-14.3-3.5 c-5.4,0-10.6,1.2-14.5,3.5l-60.4,34.3c-5,2.9-10.4,8.7-13.4,15.2c-2.2-6.4-6.4-12.1-11.6-15.1l-58.8-34.2 c-3.9-2.2-8.9-3.5-14.3-3.5c-5.4,0-10.6,1.2-14.5,3.5l-60.4,34.3c-5,2.9-10.4,8.7-13.4,15.2c-2.2-6.4-6.4-12.2-11.7-15.2 l-58.8-34.3c-3.9-2.2-8.9-3.5-14.3-3.5s-10.6,1.2-14.5,3.5l-60.4,34.3c-7.4,4.3-15.7,14.9-15.7,24.8v68.4 c0,9.9,8.2,20.6,15.5,24.8l60.7,34.3c3.9,2.2,9,3.4,14.3,3.4c1,0,1.9-0.1,2.9-0.1c-4.2,5-7.4,11.5-7.4,17.6V751 c0,6.1,3.2,12.6,7.3,17.6c-0.9-0.1-1.9-0.1-2.8-0.1c-5.4,0-10.6,1.2-14.5,3.5l-60.4,34.3c-7.4,4.3-15.7,14.9-15.7,24.8v68.4 c0,9.9,8.2,20.6,15.5,24.8l60.7,34.3c3.9,2.2,9,3.4,14.3,3.4s10.4-1.2,14.2-3.5l59-34.3c5.1-3,9.3-8.7,11.5-15.1 c2.9,6.5,8.3,12.3,13.2,15.1l60.7,34.3c3.9,2.2,9,3.4,14.3,3.4c5.3,0,10.4-1.2,14.2-3.5l59-34.3c5.1-3,9.3-8.7,11.5-15.1 c2.9,6.5,8.3,12.3,13.2,15.1l60.7,34.3c3.9,2.2,9,3.4,14.3,3.4c5.3,0,10.4-1.2,14.2-3.5l59-34.3c5.1-3,9.3-8.7,11.5-15.1 c2.9,6.5,8.3,12.3,13.2,15.1l60.7,34.3c3.9,2.2,9,3.4,14.3,3.4c5.3,0,10.4-1.2,14.2-3.5l59-34.3c5.1-3,9.3-8.7,11.5-15.1 c2.9,6.5,8.3,12.3,13.2,15.1l60.7,34.3c3.9,2.2,9,3.4,14.3,3.4c5.3,0,10.4-1.2,14.2-3.5l59-34.3c7.7-4.4,13.2-15.1,13.2-24.8 V831c0-6.2-2.3-12.8-6-18c1.8,0.3,3.7,0.5,5.6,0.5c5.3,0,10.4-1.2,14.2-3.5l59-34.3c7.7-4.4,13.2-15.1,13.2-24.8v-68.4 C1739,672.9,1733.4,662.3,1725.6,657.8z" class="st0"/></g></g><g><g><linearGradient id="SVGID_87_" x1="7006.823" x2="7090.142" y1="1760.781" y2="1628.031" gradientTransform="matrix(0 1 1 0 -741.7168 -6327.2813)" gradientUnits="userSpaceOnUse"><stop offset="0" style="stop-color:#4dabcf"/><stop offset="1" style="stop-color:#4d77cf"/></linearGradient><path d="M874,682.6c0-7.8,6.8-17.4,13.6-21.3l60.3-34.3c6.8-3.9,18.2-3.9,25,0l58.7,34.3 c6.8,3.9,11.4,13.5,11.4,21.3V751c0,7.8-4.4,17.4-11.2,21.3l-59.1,34.3c-6.8,3.9-17.6,3.9-24.4,0l-60.8-34.3 c-6.8-3.9-13.5-13.5-13.5-21.3L874,682.6L874,682.6z" class="st107"/></g><g class="st108"><path d="M960.3,628.1c4,0,7.8,0.9,10.4,2.4l58.8,34.3c5.2,3,9.5,11,9.5,17.8V751c0,6.9-4.2,14.9-9.4,17.8 l-59.2,34.3c-2.6,1.5-6.4,2.4-10.2,2.4c-3.9,0-7.6-0.9-10.2-2.4l-60.1-34.3c-5.8-3.3-10.8-11.7-10.8-17.8v-68.4 c0-6.1,5.1-14.5,10.9-17.8l60-34.3C952.6,629,956.4,628.1,960.3,628.1 M960.3,624.1c-4.5,0-9,1-12.4,2.9l-60,34.3 c-6.8,3.9-13,13.5-13,21.3V751c0,7.8,6.1,17.4,12.8,21.3l60.2,34.3c3.4,1.9,7.8,2.9,12.2,2.9c4.4,0,8.8-1,12.2-2.9l59.2-34.3 c6.8-3.9,11.4-13.5,11.4-21.3v-68.4c0-7.8-4.7-17.4-11.5-21.3L972.8,627C969.4,625.1,964.8,624.1,960.3,624.1L960.3,624.1z" class="st94"/></g><text class="st0 st99 st100" transform="matrix(1 0 0 1 912.9758 722.7966)">Oil &amp; Gas</text></g><g><g><linearGradient id="SVGID_88_" x1="7006.823" x2="7090.142" y1="1933.782" y2="1801.031" gradientTransform="matrix(0 1 1 0 -741.7168 -6327.2813)" gradientUnits="userSpaceOnUse"><stop offset="0" style="stop-color:#4dabcf"/><stop offset="1" style="stop-color:#4d77cf"/></linearGradient><path d="M1047,682.6c0-7.8,6.8-17.4,13.6-21.3l60.3-34.3c6.8-3.9,18.2-3.9,25,0l58.7,34.3 c6.8,3.9,11.4,13.5,11.4,21.3V751c0,7.8-4.4,17.4-11.2,21.3l-59.1,34.3c-6.8,3.9-17.6,3.9-24.4,0l-60.8-34.3 c-6.8-3.9-13.5-13.5-13.5-21.3L1047,682.6L1047,682.6z" class="st109"/></g><g class="st108"><path d="M1133.3,628.1c4,0,7.8,0.9,10.4,2.4l58.8,34.3c5.2,3,9.5,11,9.5,17.8V751c0,6.9-4.2,14.9-9.4,17.8 l-59.2,34.3c-2.6,1.5-6.4,2.4-10.2,2.4c-3.9,0-7.6-0.9-10.2-2.4l-60.1-34.3c-5.8-3.3-10.8-11.7-10.8-17.8v-68.4 c0-6.1,5.1-14.5,11-17.8l60-34.3C1125.6,629,1129.4,628.1,1133.3,628.1 M1133.3,624.1c-4.5,0-9,1-12.4,2.9l-60,34.3 c-6.8,3.9-13,13.5-13,21.3V751c0,7.8,6.1,17.4,12.8,21.3l60.2,34.3c3.4,1.9,7.8,2.9,12.2,2.9s8.8-1,12.2-2.9l59.2-34.3 c6.8-3.9,11.4-13.5,11.4-21.3v-68.4c0-7.8-4.7-17.4-11.5-21.3l-58.8-34.3C1142.4,625.1,1137.8,624.1,1133.3,624.1L1133.3,624.1 z" class="st94"/></g><text class="st0 st99 st100" transform="matrix(1 0 0 1 1094.3069 722.7966)">Sports</text></g><g><g><linearGradient id="SVGID_89_" x1="7006.823" x2="7090.142" y1="2279.782" y2="2147.032" gradientTransform="matrix(0 1 1 0 -741.7168 -6327.2813)" gradientUnits="userSpaceOnUse"><stop offset="0" style="stop-color:#4dabcf"/><stop offset="1" style="stop-color:#4d77cf"/></linearGradient><path d="M1393,682.6c0-7.8,6.8-17.4,13.6-21.3l60.3-34.3c6.8-3.9,18.2-3.9,25,0l58.7,34.3 c6.8,3.9,11.4,13.5,11.4,21.3V751c0,7.8-4.4,17.4-11.2,21.3l-59.1,34.3c-6.8,3.9-17.6,3.9-24.4,0l-60.8-34.3 c-6.8-3.9-13.5-13.5-13.5-21.3L1393,682.6L1393,682.6z" class="st110"/></g><g class="st108"><path d="M1479.3,628.1c4,0,7.8,0.9,10.4,2.4l58.8,34.3c5.2,3,9.5,11,9.5,17.8V751c0,6.9-4.2,14.9-9.4,17.8 l-59.2,34.3c-2.6,1.5-6.4,2.4-10.2,2.4c-3.9,0-7.6-0.9-10.2-2.4l-60.1-34.3c-5.8-3.3-10.8-11.7-10.8-17.8v-68.4 c0-6.1,5.1-14.5,11-17.8l60-34.3C1471.6,629,1475.4,628.1,1479.3,628.1 M1479.3,624.1c-4.5,0-9,1-12.4,2.9l-60,34.3 c-6.8,3.9-13,13.5-13,21.3V751c0,7.8,6.1,17.4,12.8,21.3l60.2,34.3c3.4,1.9,7.8,2.9,12.2,2.9s8.8-1,12.2-2.9l59.2-34.3 c6.8-3.9,11.4-13.5,11.4-21.3v-68.4c0-7.8-4.7-17.4-11.5-21.3l-58.8-34.3C1488.4,625.1,1483.8,624.1,1479.3,624.1L1479.3,624.1 z" class="st94"/></g><text class="st0 st99 st100" transform="matrix(1 0 0 1 1433.0237 722.6443)">Telecom</text></g><g><g><linearGradient id="SVGID_90_" x1="7006.822" x2="7090.142" y1="2452.783" y2="2320.031" gradientTransform="matrix(0 1 1 0 -741.7168 -6327.2813)" gradientUnits="userSpaceOnUse"><stop offset="0" style="stop-color:#4dabcf"/><stop offset="1" style="stop-color:#4d77cf"/></linearGradient><path d="M1566,682.6c0-7.8,6.8-17.4,13.6-21.3l60.3-34.3c6.8-3.9,18.2-3.9,25,0l58.7,34.3 c6.8,3.9,11.4,13.5,11.4,21.3V751c0,7.8-4.4,17.4-11.2,21.3l-59.1,34.3c-6.8,3.9-17.6,3.9-24.4,0l-60.8-34.3 c-6.8-3.9-13.5-13.5-13.5-21.3L1566,682.6L1566,682.6z" class="st111"/></g><g class="st108"><path d="M1652.3,628.1c4,0,7.8,0.9,10.4,2.4l58.8,34.3c5.2,3,9.5,11,9.5,17.8V751c0,6.9-4.2,14.9-9.4,17.8 l-59.2,34.3c-2.6,1.5-6.4,2.4-10.2,2.4c-3.9,0-7.6-0.9-10.2-2.4l-60.1-34.3c-5.8-3.3-10.8-11.7-10.8-17.8v-68.4 c0-6.1,5.1-14.5,11-17.8l60-34.3C1644.6,629,1648.4,628.1,1652.3,628.1 M1652.3,624.1c-4.5,0-9,1-12.4,2.9l-60,34.3 c-6.8,3.9-13,13.5-13,21.3V751c0,7.8,6.1,17.4,12.8,21.3l60.2,34.3c3.4,1.9,7.8,2.9,12.2,2.9s8.8-1,12.2-2.9l59.2-34.3 c6.8-3.9,11.4-13.5,11.4-21.3v-68.4c0-7.8-4.7-17.4-11.5-21.3l-58.8-34.3C1661.4,625.1,1656.8,624.1,1652.3,624.1L1652.3,624.1 z" class="st94"/></g><text class="st0 st99 st100" transform="matrix(1 0 0 1 1587.9241 722.7966)">Healthcare</text></g><g><g><linearGradient id="SVGID_91_" x1="7006.824" x2="7090.142" y1="2106.781" y2="1974.031" gradientTransform="matrix(0 1 1 0 -741.7168 -6327.2813)" gradientUnits="userSpaceOnUse"><stop offset="0" style="stop-color:#4dabcf"/><stop offset="1" style="stop-color:#4d77cf"/></linearGradient><path d="M1220,682.6c0-7.8,6.8-17.4,13.6-21.3l60.3-34.3c6.8-3.9,18.2-3.9,25,0l58.7,34.3 c6.8,3.9,11.4,13.5,11.4,21.3V751c0,7.8-4.4,17.4-11.2,21.3l-59.1,34.3c-6.8,3.9-17.6,3.9-24.4,0l-60.8-34.3 c-6.8-3.9-13.5-13.5-13.5-21.3L1220,682.6L1220,682.6z" class="st112"/></g><g class="st108"><path d="M1306.3,628.1c4,0,7.8,0.9,10.4,2.4l58.8,34.3c5.2,3,9.5,11,9.5,17.8V751c0,6.9-4.2,14.9-9.4,17.8 l-59.2,34.3c-2.6,1.5-6.4,2.4-10.2,2.4c-3.9,0-7.6-0.9-10.2-2.4l-60.1-34.3c-5.8-3.3-10.8-11.7-10.8-17.8v-68.4 c0-6.1,5.1-14.5,11-17.8l60-34.3C1298.6,629,1302.4,628.1,1306.3,628.1 M1306.3,624.1c-4.5,0-9,1-12.4,2.9l-60,34.3 c-6.8,3.9-13,13.5-13,21.3V751c0,7.8,6.1,17.4,12.8,21.3l60.2,34.3c3.4,1.9,7.8,2.9,12.2,2.9s8.8-1,12.2-2.9l59.2-34.3 c6.8-3.9,11.4-13.5,11.4-21.3v-68.4c0-7.8-4.7-17.4-11.5-21.3l-58.8-34.3C1315.4,625.1,1310.8,624.1,1306.3,624.1L1306.3,624.1 z" class="st94"/></g><text class="st0 st99 st100" transform="matrix(1 0 0 1 1233.6038 722.7966)">Meteorology</text></g><g><g><linearGradient id="SVGID_92_" x1="7155.205" x2="7238.523" y1="1674.783" y2="1542.032" gradientTransform="matrix(0 1 1 0 -741.7168 -6327.2813)" gradientUnits="userSpaceOnUse"><stop offset="0" style="stop-color:#4dabcf"/><stop offset="1" style="stop-color:#4d77cf"/></linearGradient><path d="M788,831c0-7.8,6.8-17.4,13.6-21.3l60.3-34.3c6.8-3.9,18.2-3.9,25,0l58.7,34.3 c6.8,3.9,11.4,13.5,11.4,21.3v68.4c0,7.8-4.4,17.4-11.2,21.3L886.7,955c-6.8,3.9-17.6,3.9-24.4,0l-60.8-34.3 c-6.8-3.9-13.5-13.5-13.5-21.3L788,831L788,831z" class="st113"/></g><g class="st108"><path d="M874.3,776.5c4,0,7.8,0.9,10.4,2.4l58.8,34.3c5.2,3,9.5,11,9.5,17.8v68.4c0,6.9-4.2,14.9-9.4,17.8 l-59.2,34.3c-2.6,1.5-6.4,2.4-10.2,2.4c-3.9,0-7.6-0.9-10.2-2.4l-60.1-34.3c-5.8-3.3-10.8-11.7-10.8-17.8V831 c0-6.1,5.1-14.5,10.9-17.8l60-34.3C866.6,777.4,870.4,776.5,874.3,776.5 M874.3,772.5c-4.5,0-9,1-12.4,2.9l-60,34.3 c-6.8,3.9-13,13.5-13,21.3v68.4c0,7.8,6.1,17.4,12.8,21.3L862,955c3.4,1.9,7.8,2.9,12.2,2.9c4.4,0,8.8-1,12.2-2.9l59.2-34.3 c6.8-3.9,11.4-13.5,11.4-21.3V831c0-7.8-4.7-17.4-11.5-21.3l-58.8-34.3C883.4,773.5,878.8,772.5,874.3,772.5L874.3,772.5z" class="st94"/></g><text class="st0 st99 st100" transform="matrix(1 0 0 1 841.7346 859.0251)">Space</text><text class="st0 st99 st100" transform="matrix(1 0 0 1 806.5203 883.0251)">Exploration</text></g><g><g><linearGradient id="SVGID_93_" x1="7155.205" x2="7238.524" y1="1847.783" y2="1715.032" gradientTransform="matrix(0 1 1 0 -741.7168 -6327.2813)" gradientUnits="userSpaceOnUse"><stop offset="0" style="stop-color:#4dabcf"/><stop offset="1" style="stop-color:#4d77cf"/></linearGradient><path d="M961,831c0-7.8,6.8-17.4,13.6-21.3l60.3-34.3c6.8-3.9,18.2-3.9,25,0l58.7,34.3 c6.8,3.9,11.4,13.5,11.4,21.3v68.4c0,7.8-4.4,17.4-11.2,21.3l-59.1,34.3c-6.8,3.9-17.6,3.9-24.4,0l-60.8-34.3 c-6.8-3.9-13.5-13.5-13.5-21.3L961,831L961,831z" class="st114"/></g><g class="st108"><path d="M1047.3,776.5c4,0,7.8,0.9,10.4,2.4l58.8,34.3c5.2,3,9.5,11,9.5,17.8v68.4c0,6.9-4.2,14.9-9.4,17.8 l-59.2,34.3c-2.6,1.5-6.4,2.4-10.2,2.4c-3.9,0-7.6-0.9-10.2-2.4l-60.2-34.3c-5.8-3.3-10.8-11.7-10.8-17.8V831 c0-6.1,5.1-14.5,11-17.8l60-34.3C1039.6,777.4,1043.4,776.5,1047.3,776.5 M1047.3,772.5c-4.5,0-9,1-12.4,2.9l-60,34.3 c-6.8,3.9-13,13.5-13,21.3v68.4c0,7.8,6.1,17.4,12.8,21.3L1035,955c3.4,1.9,7.8,2.9,12.2,2.9s8.8-1,12.2-2.9l59.2-34.3 c6.8-3.9,11.4-13.5,11.4-21.3V831c0-7.8-4.7-17.4-11.5-21.3l-58.8-34.3C1056.4,773.5,1051.8,772.5,1047.3,772.5L1047.3,772.5z" class="st94"/></g><text class="st0 st99 st100" transform="matrix(1 0 0 1 983.3948 871.0271)">Real Estate</text></g><g><g><linearGradient id="SVGID_94_" x1="7155.204" x2="7238.524" y1="2020.784" y2="1888.032" gradientTransform="matrix(0 1 1 0 -741.7168 -6327.2813)" gradientUnits="userSpaceOnUse"><stop offset="0" style="stop-color:#4dabcf"/><stop offset="1" style="stop-color:#4d77cf"/></linearGradient><path d="M1134,831c0-7.8,6.8-17.4,13.6-21.3l60.3-34.3c6.8-3.9,18.2-3.9,25,0l58.7,34.3 c6.8,3.9,11.4,13.5,11.4,21.3v68.4c0,7.8-4.4,17.4-11.2,21.3l-59.1,34.3c-6.8,3.9-17.6,3.9-24.4,0l-60.8-34.3 c-6.8-3.9-13.5-13.5-13.5-21.3L1134,831L1134,831z" class="st115"/></g><g class="st108"><path d="M1220.3,776.5c4,0,7.8,0.9,10.4,2.4l58.8,34.3c5.2,3,9.5,11,9.5,17.8v68.4c0,6.9-4.2,14.9-9.4,17.8 l-59.2,34.3c-2.6,1.5-6.4,2.4-10.2,2.4c-3.9,0-7.6-0.9-10.2-2.4l-60.1-34.3c-5.8-3.3-10.8-11.7-10.8-17.8V831 c0-6.1,5.1-14.5,11-17.8l60-34.3C1212.6,777.4,1216.4,776.5,1220.3,776.5 M1220.3,772.5c-4.5,0-9,1-12.4,2.9l-60,34.3 c-6.8,3.9-13,13.5-13,21.3v68.4c0,7.8,6.1,17.4,12.8,21.3L1208,955c3.4,1.9,7.8,2.9,12.2,2.9s8.8-1,12.2-2.9l59.2-34.3 c6.8-3.9,11.4-13.5,11.4-21.3V831c0-7.8-4.7-17.4-11.5-21.3l-58.8-34.3C1229.4,773.5,1224.8,772.5,1220.3,772.5L1220.3,772.5z" class="st94"/></g><text class="st0 st99 st100" transform="matrix(1 0 0 1 1189.0627 871.0271)">Legal</text></g><g><g><linearGradient id="SVGID_95_" x1="7155.205" x2="7238.524" y1="2193.782" y2="2061.031" gradientTransform="matrix(0 1 1 0 -741.7168 -6327.2813)" gradientUnits="userSpaceOnUse"><stop offset="0" style="stop-color:#4dabcf"/><stop offset="1" style="stop-color:#4d77cf"/></linearGradient><path d="M1307,831c0-7.8,6.8-17.4,13.6-21.3l60.3-34.3c6.8-3.9,18.2-3.9,25,0l58.7,34.3 c6.8,3.9,11.4,13.5,11.4,21.3v68.4c0,7.8-4.4,17.4-11.2,21.3l-59.1,34.3c-6.8,3.9-17.6,3.9-24.4,0l-60.8-34.3 c-6.8-3.9-13.5-13.5-13.5-21.3L1307,831L1307,831z" class="st116"/></g><g class="st108"><path d="M1393.3,776.5c4,0,7.8,0.9,10.4,2.4l58.8,34.3c5.2,3,9.5,11,9.5,17.8v68.4c0,6.9-4.2,14.9-9.4,17.8 l-59.2,34.3c-2.6,1.5-6.4,2.4-10.2,2.4c-3.9,0-7.6-0.9-10.2-2.4l-60.1-34.3c-5.8-3.3-10.8-11.7-10.8-17.8V831 c0-6.1,5.1-14.5,11-17.8l60-34.3C1385.6,777.4,1389.4,776.5,1393.3,776.5 M1393.3,772.5c-4.5,0-9,1-12.4,2.9l-60,34.3 c-6.8,3.9-13,13.5-13,21.3v68.4c0,7.8,6.1,17.4,12.8,21.3L1381,955c3.4,1.9,7.8,2.9,12.2,2.9s8.8-1,12.2-2.9l59.2-34.3 c6.8-3.9,11.4-13.5,11.4-21.3V831c0-7.8-4.7-17.4-11.5-21.3l-58.8-34.3C1402.4,773.5,1397.8,772.5,1393.3,772.5L1393.3,772.5z" class="st94"/></g><text class="st0 st99 st100" transform="matrix(1 0 0 1 1361.5803 871.0271)">Media</text></g><g><g><linearGradient id="SVGID_96_" x1="7155.204" x2="7238.524" y1="2366.784" y2="2234.032" gradientTransform="matrix(0 1 1 0 -741.7168 -6327.2813)" gradientUnits="userSpaceOnUse"><stop offset="0" style="stop-color:#4dabcf"/><stop offset="1" style="stop-color:#4d77cf"/></linearGradient><path d="M1480,831c0-7.8,6.8-17.4,13.6-21.3l60.3-34.3c6.8-3.9,18.2-3.9,25,0l58.7,34.3 c6.8,3.9,11.4,13.5,11.4,21.3v68.4c0,7.8-4.4,17.4-11.2,21.3l-59.1,34.3c-6.8,3.9-17.6,3.9-24.4,0l-60.8-34.3 c-6.8-3.9-13.5-13.5-13.5-21.3L1480,831L1480,831z" class="st117"/></g><g class="st108"><path d="M1566.3,776.5c4,0,7.8,0.9,10.4,2.4l58.8,34.3c5.2,3,9.5,11,9.5,17.8v68.4c0,6.9-4.2,14.9-9.4,17.8 l-59.2,34.3c-2.6,1.5-6.4,2.4-10.2,2.4c-3.9,0-7.6-0.9-10.2-2.4l-60.1-34.3c-5.8-3.3-10.8-11.7-10.8-17.8V831 c0-6.1,5.1-14.5,11-17.8l60-34.3C1558.6,777.4,1562.4,776.5,1566.3,776.5 M1566.3,772.5c-4.5,0-9,1-12.4,2.9l-60,34.3 c-6.8,3.9-13,13.5-13,21.3v68.4c0,7.8,6.1,17.4,12.8,21.3L1554,955c3.4,1.9,7.8,2.9,12.2,2.9s8.8-1,12.2-2.9l59.2-34.3 c6.8-3.9,11.4-13.5,11.4-21.3V831c0-7.8-4.7-17.4-11.5-21.3l-58.8-34.3C1575.4,773.5,1570.8,772.5,1566.3,772.5L1566.3,772.5z" class="st94"/></g></g><g><g><linearGradient id="SVGID_97_" x1="6858.443" x2="6941.762" y1="1674.782" y2="1542.032" gradientTransform="matrix(0 1 1 0 -741.7168 -6327.2813)" gradientUnits="userSpaceOnUse"><stop offset="0" style="stop-color:#4dabcf"/><stop offset="1" style="stop-color:#4d77cf"/></linearGradient><path d="M788,534.2c0-7.8,6.8-17.4,13.6-21.3l60.3-34.3c6.8-3.9,18.2-3.9,25,0l58.7,34.3 c6.8,3.9,11.4,13.5,11.4,21.3v68.4c0,7.8-4.4,17.4-11.2,21.3l-59.1,34.3c-6.8,3.9-17.6,3.9-24.4,0l-60.8-34.3 c-6.8-3.9-13.5-13.5-13.5-21.3L788,534.2L788,534.2L788,534.2z" class="st118"/></g><g class="st108"><path d="M873.8,479.7c4,0,7.8,0.9,10.4,2.4l59.1,34.3c5.4,3.1,9.7,11.3,9.7,17.8v68.4c0,6.6-4.3,14.8-9.7,17.8 L884,654.7c-2.6,1.5-6.3,2.4-10.2,2.4c-3.9,0-7.6-0.9-10.3-2.4l-60.4-34.3c-5.8-3.3-11.1-11.7-11.1-17.8v-68.4 c0-6.2,5.4-14.5,11.2-17.8l60.1-34.3C865.9,480.6,869.8,479.7,873.8,479.7 M873.8,475.7c-4.5,0-9,1-12.4,2.9l-60.2,34.3 c-6.8,3.9-13.2,13.5-13.2,21.3v68.4c0,7.8,6.4,17.4,13.1,21.3l60.3,34.3c3.4,1.9,7.9,2.9,12.3,2.9s8.9-1,12.3-2.9l59.2-34.3 c6.8-3.9,11.7-13.5,11.7-21.3v-68.4c0-7.8-5-17.4-11.7-21.3l-59.2-34.3C882.7,476.7,878.3,475.7,873.8,475.7L873.8,475.7z" class="st94"/></g><text class="st0 st99 st100" transform="matrix(1 0 0 1 821.1248 562.2634)">Scientific</text><text class="st0 st99 st100" transform="matrix(1 0 0 1 822.8875 586.2634)">Research</text></g><g><g><linearGradient id="SVGID_98_" x1="6858.339" x2="6941.659" y1="2020.784" y2="1888.033" gradientTransform="matrix(0 1 1 0 -741.7168 -6327.2813)" gradientUnits="userSpaceOnUse"><stop offset="0" style="stop-color:#4dabcf"/><stop offset="1" style="stop-color:#4d77cf"/></linearGradient><path d="M1134,534.1c0-7.8,6.8-17.4,13.6-21.3l60.3-34.3c6.8-3.9,18.2-3.9,25,0l58.7,34.3 c6.8,3.9,11.4,13.5,11.4,21.3v68.4c0,7.8-4.4,17.4-11.2,21.3l-59.1,34.3c-6.8,3.9-17.6,3.9-24.4,0l-60.8-34.3 c-6.8-3.9-13.5-13.5-13.5-21.3L1134,534.1L1134,534.1z" class="st119"/></g><g class="st108"><path d="M1220.3,479.6c4,0,7.8,0.9,10.4,2.4l58.8,34.3c5.2,3,9.5,11,9.5,17.8v68.4c0,6.9-4.2,14.9-9.4,17.8 l-59.2,34.3c-2.6,1.5-6.4,2.4-10.2,2.4c-3.9,0-7.6-0.9-10.2-2.4l-60.1-34.3c-5.8-3.3-10.8-11.7-10.8-17.8v-68.4 c0-6.1,5.1-14.5,11-17.8l60-34.3C1212.6,480.5,1216.4,479.6,1220.3,479.6 M1220.3,475.6c-4.5,0-9,1-12.4,2.9l-60,34.3 c-6.8,3.9-13,13.5-13,21.3v68.4c0,7.8,6.1,17.4,12.8,21.3l60.2,34.3c3.4,1.9,7.8,2.9,12.2,2.9s8.8-1,12.2-2.9l59.2-34.3 c6.8-3.9,11.4-13.5,11.4-21.3v-68.4c0-7.8-4.7-17.4-11.5-21.3l-58.8-34.3C1229.4,476.6,1224.8,475.6,1220.3,475.6L1220.3,475.6 z" class="st94"/></g><text class="st0 st99 st100" transform="matrix(1 0 0 1 1156.1604 574.1638)">Automotive</text></g><g><g><linearGradient id="SVGID_99_" x1="6858.342" x2="6941.662" y1="2193.78" y2="2061.029" gradientTransform="matrix(0 1 1 0 -741.7168 -6327.2813)" gradientUnits="userSpaceOnUse"><stop offset="0" style="stop-color:#4dabcf"/><stop offset="1" style="stop-color:#4d77cf"/></linearGradient><path d="M1307,534.1c0-7.8,6.8-17.4,13.6-21.3l60.3-34.3c6.8-3.9,18.2-3.9,25,0l58.7,34.3 c6.8,3.9,11.4,13.5,11.4,21.3v68.4c0,7.8-4.4,17.4-11.2,21.3l-59.1,34.3c-6.8,3.9-17.6,3.9-24.4,0l-60.8-34.3 c-6.8-3.9-13.5-13.5-13.5-21.3L1307,534.1L1307,534.1z" class="st120"/></g><g class="st108"><path d="M1393.3,479.6c4,0,7.8,0.9,10.4,2.4l58.8,34.3c5.2,3,9.5,11,9.5,17.8v68.4c0,6.9-4.2,14.9-9.4,17.8 l-59.2,34.3c-2.6,1.5-6.4,2.4-10.2,2.4c-3.9,0-7.6-0.9-10.2-2.4l-60.1-34.3c-5.8-3.3-10.8-11.7-10.8-17.8v-68.4 c0-6.1,5.1-14.5,11-17.8l60-34.3C1385.6,480.5,1389.4,479.6,1393.3,479.6 M1393.3,475.6c-4.5,0-9,1-12.4,2.9l-60,34.3 c-6.8,3.9-13,13.5-13,21.3v68.4c0,7.8,6.1,17.4,12.8,21.3l60.2,34.3c3.4,1.9,7.8,2.9,12.2,2.9s8.8-1,12.2-2.9l59.2-34.3 c6.8-3.9,11.4-13.5,11.4-21.3v-68.4c0-7.8-4.7-17.4-11.5-21.3l-58.8-34.3C1402.4,476.6,1397.8,475.6,1393.3,475.6L1393.3,475.6 z" class="st94"/></g><text class="st0 st99 st100" transform="matrix(1 0 0 1 1335.2639 574.1638)">Aerospace</text></g><g><g><linearGradient id="SVGID_100_" x1="6858.342" x2="6941.661" y1="2366.781" y2="2234.03" gradientTransform="matrix(0 1 1 0 -741.7168 -6327.2813)" gradientUnits="userSpaceOnUse"><stop offset="0" style="stop-color:#4dabcf"/><stop offset="1" style="stop-color:#4d77cf"/></linearGradient><path d="M1480,534.1c0-7.8,6.8-17.4,13.6-21.3l60.3-34.3c6.8-3.9,18.2-3.9,25,0l58.7,34.3 c6.8,3.9,11.4,13.5,11.4,21.3v68.4c0,7.8-4.4,17.4-11.2,21.3l-59.1,34.3c-6.8,3.9-17.6,3.9-24.4,0l-60.8-34.3 c-6.8-3.9-13.5-13.5-13.5-21.3L1480,534.1L1480,534.1z" class="st121"/></g><g class="st108"><path d="M1566.3,479.6c4,0,7.8,0.9,10.4,2.4l58.8,34.3c5.2,3,9.5,11,9.5,17.8v68.4c0,6.9-4.2,14.9-9.4,17.8 l-59.2,34.3c-2.6,1.5-6.4,2.4-10.2,2.4c-3.9,0-7.6-0.9-10.2-2.4l-60.1-34.3c-5.8-3.3-10.8-11.7-10.8-17.8v-68.4 c0-6.1,5.1-14.5,11-17.8l60-34.3C1558.6,480.5,1562.4,479.6,1566.3,479.6 M1566.3,475.6c-4.5,0-9,1-12.4,2.9l-60,34.3 c-6.8,3.9-13,13.5-13,21.3v68.4c0,7.8,6.1,17.4,12.8,21.3l60.2,34.3c3.4,1.9,7.8,2.9,12.2,2.9s8.8-1,12.2-2.9l59.2-34.3 c6.8-3.9,11.4-13.5,11.4-21.3v-68.4c0-7.8-4.7-17.4-11.5-21.3l-58.8-34.3C1575.4,476.6,1570.8,475.6,1566.3,475.6L1566.3,475.6 z" class="st94"/></g></g><g><g><linearGradient id="SVGID_101_" x1="6858.441" x2="6941.761" y1="1847.783" y2="1715.031" gradientTransform="matrix(0 1 1 0 -741.7168 -6327.2813)" gradientUnits="userSpaceOnUse"><stop offset="0" style="stop-color:#4dabcf"/><stop offset="1" style="stop-color:#4d77cf"/></linearGradient><path d="M961,534.2c0-7.8,6.8-17.4,13.6-21.3l60.3-34.3c6.8-3.9,18.2-3.9,25,0l58.7,34.3 c6.8,3.9,11.4,13.5,11.4,21.3v68.4c0,7.8-4.4,17.4-11.2,21.3l-59.1,34.3c-6.8,3.9-17.6,3.9-24.4,0l-60.8-34.3 c-6.8-3.9-13.5-13.5-13.5-21.3L961,534.2L961,534.2z" class="st122"/></g><g class="st108"><path d="M1047.5,479.7c4,0,7.8,0.9,10.5,2.4l58.7,34.3c5.3,3,9.3,11,9.3,17.8v68.4c0,6.8-4,14.8-9.2,17.8 l-59.1,34.3c-2.6,1.5-6.3,2.4-10.2,2.4c-3.9,0-7.6-0.9-10.2-2.4l-60.8-34.3c-5.9-3.4-11.5-11.9-11.5-17.8v-68.4 c0-5.9,5.7-14.4,11.6-17.8l60.3-34.3C1039.6,480.6,1043.5,479.7,1047.5,479.7 M1047.5,475.7c-4.5,0-9.1,1-12.5,2.9l-60.4,34.3 c-6.8,3.9-13.6,13.5-13.6,21.3v68.4c0,7.8,6.7,17.4,13.5,21.3l60.7,34.3c3.4,1.9,7.9,2.9,12.3,2.9s8.9-1,12.3-2.9l59-34.3 c6.8-3.9,11.2-13.5,11.2-21.3v-68.4c0-7.8-4.6-17.4-11.4-21.3l-58.8-34.3C1056.5,476.7,1052.1,475.7,1047.5,475.7L1047.5,475.7 z" class="st94"/></g><text class="st0 st99 st100" transform="matrix(1 0 0 1 1004.6467 574.2615)">Finance</text></g></g><g><text class="st94 st99 st123" transform="matrix(1 0 0 1 533.6262 273.6697)">24</text><text class="st94 st99 st124" transform="matrix(1 0 0 1 545.2239 319.6697)">million</text><text class="st94 st99 st93" transform="matrix(1 0 0 1 405.2253 355.6697)">downloads (Dec, 2019)</text><g id="download_5_"><path d="M594.5,144.8l22.9-27c1-1.4,1.1-3.5,0.3-5c-0.8-1.5-2.3-2.8-4-2.8H606v-8.1c0-2.2-2.2-4.9-4.4-4.9h-21.4 c-2.2,0-4.2,2.8-4.2,4.9v8.1h-8c-1.7,0-3.2,1.3-4,2.8c-0.3,0.6-0.5,1.5-0.5,2.2c0,0.9,0.3,1.9,0.8,2.7l22.9,27.1 c0.8,1.2,2.2,1.9,3.6,1.9C592.3,146.7,593.7,146,594.5,144.8z" class="st125"/><path d="M606,86c0,2.2-1.8,4-4,4H580c-2.2,0-4-1.8-4-4V80c0-2.2,1.8-4,4-4H602c2.2,0,4,1.8,4,4V86z" class="st125"/><path d="M633.5,142h-11.9c-2.2,0-3.6,2.3-3.6,4.5v8.5h-54v-8.5c0-2.2-1.6-4.5-3.8-4.5h-11.9 c-2.2,0-4.4,2.3-4.4,4.5v19.8c0,2.2,2.2,3.7,4.4,3.7h85.1c2.2,0,4.5-1.6,4.5-3.7v-19.8C638,144.3,635.6,142,633.5,142z" class="st125"/></g></g><g><text class="st94 st99 st123" transform="matrix(1 0 0 1 1228.7327 273.5818)">$1,4</text><text class="st94 st99 st124" transform="matrix(1 0 0 1 1281.2229 319.5818)">million</text><text class="st94 st99 st93" transform="matrix(1 0 0 1 1198.7502 355.5818)">lifetime funding</text><g id="money_5_"><g><g><path d="M1334.5,109.1c-1.2,1.3-2.9,2.1-5,2.5c-0.1,0.1-0.2,0.1-0.2,0.2l0,2.4c0,0.1,0,0.1-0.1,0.1 c-0.1,0.1-0.2,0-0.3,0h-3.7c-0.1,0-0.2,0.1-0.3,0c-0.1-0.1-0.1-0.1-0.1-0.2l0-2.4c0-0.1-0.1-0.2-0.2-0.2 c-2.1-0.4-3.7-1.3-4.9-2.6c-1.2-1.3-1.8-3-1.8-5v-0.8c0-0.1,0-0.4,0.1-0.5c0.1-0.1,0.1-0.3,0.3-0.3h4.1c0.1,0,0.3,0.2,0.4,0.3 c0.1,0.1,0.2,0.4,0.2,0.5v0.6c0,1,0.4,1.8,1.2,2.5c0.9,0.7,2,1,3.6,1c1.3,0,2.2-0.3,2.8-0.8c0.6-0.6,0.9-1.3,0.9-2.1 c0-0.6-0.2-1.1-0.6-1.5c-0.4-0.4-0.9-0.8-1.6-1.1c-0.7-0.3-1.7-0.7-3.1-1.3c-1.6-0.6-3-1.2-4.1-1.8c-1.1-0.6-2-1.4-2.8-2.5 c-0.8-1-1.1-2.3-1.1-3.8c0-1.9,0.6-3.5,1.7-4.8c1.2-1.3,2.7-2.1,4.7-2.5c0.1-0.1,0.2-0.1,0.2-0.2l-0.1-2.7 c0-0.1,0-0.4,0.1-0.5c0.1-0.1,0.2-0.3,0.3-0.3h3.7c0.1,0,0.2,0.3,0.3,0.3c0.1,0.1,0.1,0.3,0.1,0.4l0,2.9 c0,0.1,0.1,0.2,0.2,0.3c2.1,0.4,3.6,1.3,4.8,2.7c1.2,1.4,1.7,3.1,1.7,5.1v0.6c0,0.1,0.1,0.4,0,0.5c-0.1,0.1,0,0.3-0.2,0.3 h-4.1c-0.1,0-0.4-0.2-0.5-0.3c-0.1-0.1-0.3-0.3-0.3-0.5v-0.3c0-1.1-0.2-1.9-1.1-2.7c-0.8-0.7-1.9-1.1-3.3-1.1 c-1.1,0-2,0.3-2.6,0.7c-0.6,0.5-0.9,1.2-0.9,2.1c0,0.6,0.2,1.1,0.6,1.6c0.4,0.4,0.9,0.8,1.6,1.2c0.7,0.4,1.9,0.8,3.4,1.4 c1.7,0.6,3,1.2,4,1.7c1,0.5,1.8,1.2,2.6,2.2c0.8,1,1.2,2.3,1.2,3.9C1336.3,106.2,1335.7,107.8,1334.5,109.1z" class="st94"/></g><circle cx="1327" cy="98.6" r="22.1" class="st125"/></g><rect width="72" height="7" x="1291" y="120" class="st126"/><polyline points="1301 110 1283.2 110 1273.7 132.1 1276.9 170 1377.1 170 1380.3 132.1 1370.8 110 1353 110" class="st127"/><line x1="1275" x2="1380" y1="133" y2="133" class="st126"/></g></g><g><text class="st128 st99 st123" transform="matrix(1 0 0 1 824.8684 273.614)">10-15</text><text class="st128 st99 st124" transform="matrix(1 0 0 1 913.2219 319.614)">million</text><text class="st128 st99 st93" transform="matrix(1 0 0 1 826.8826 355.614)">users worldwide</text><g id="www_4_"><circle cx="959.1" cy="124.5" r="45.9" class="st129"/><g><path d="M989.1,88.7c0,7.3-13.4,13.2-30,13.2s-30-5.9-30-13.2" class="st130"/><path d="M929.1,160.4c0-7.3,13.4-13.2,30-13.2s30,5.9,30,13.2" class="st130"/></g><path d="M959.1,78.7c15.8,0,28.5,20.5,28.5,45.9c0,25.3-12.8,45.9-28.5,45.9s-28.5-20.5-28.5-45.9 C930.6,99.2,943.3,78.7,959.1,78.7" class="st130"/><line x1="960" x2="960" y1="78" y2="170" class="st130"/><line x1="914" x2="1006" y1="124" y2="124" class="st130"/><g><g><path d="M922.1,106.3c-0.4-0.5-10.8-13.2-10.8-19.3c0-6.4,5.2-11.5,11.5-11.5c6.4,0,11.5,5.2,11.5,11.5 c0,6.1-10.3,18.8-10.8,19.3l-0.8,0.9L922.1,106.3z" class="st128"/><path d="M922.9,76.4c5.8,0,10.5,4.7,10.5,10.5c0,5.8-10.5,18.7-10.5,18.7s-10.5-12.9-10.5-18.7 C912.3,81.1,917,76.4,922.9,76.4 M922.9,74.4c-6.9,0-12.5,5.6-12.5,12.5c0,6.3,9.9,18.6,11,20l1.5,1.9l1.5-1.9 c1.1-1.4,11-13.6,11-20C935.4,80,929.8,74.4,922.9,74.4L922.9,74.4z" class="st0"/></g><circle cx="922.9" cy="86.9" r="5.8" class="st0"/></g><g><g><path d="M968,156.2c-0.4-0.5-10.8-13.2-10.8-19.3c0-6.4,5.2-11.5,11.5-11.5c6.4,0,11.5,5.2,11.5,11.5 c0,6.1-10.3,18.8-10.8,19.3l-0.8,0.9L968,156.2z" class="st128"/><path d="M968.7,126.4c5.8,0,10.5,4.7,10.5,10.5c0,5.8-10.5,18.7-10.5,18.7s-10.5-12.9-10.5-18.7 S962.9,126.4,968.7,126.4 M968.7,124.4c-6.9,0-12.5,5.6-12.5,12.5c0,6.3,9.9,18.6,11,20l1.5,1.9l1.5-1.9 c1.1-1.4,11-13.6,11-20C981.3,130,975.7,124.4,968.7,124.4L968.7,124.4z" class="st0"/></g><circle cx="968.7" cy="136.9" r="5.8" class="st0"/></g><g><g><path d="M983.3,110.3c-0.4-0.5-10.8-13.2-10.8-19.3c0-6.4,5.2-11.5,11.5-11.5c6.4,0,11.5,5.2,11.5,11.5 c0,6.1-10.3,18.8-10.8,19.3l-0.8,0.9L983.3,110.3z" class="st128"/><path d="M984,80.5c5.8,0,10.5,4.7,10.5,10.5c0,5.8-10.5,18.7-10.5,18.7S973.5,96.8,973.5,91S978.2,80.5,984,80.5 M984,78.5c-6.9,0-12.5,5.6-12.5,12.5c0,6.3,9.9,18.6,11,20l1.5,1.9l1.5-1.9c1.1-1.4,11-13.6,11-20 C996.6,84.1,990.9,78.5,984,78.5L984,78.5z" class="st0"/></g><circle cx="984" cy="91" r="5.8" class="st0"/></g></g></g><g><text class="st128 st99 st123" transform="matrix(1 0 0 1 1605.2053 273.5818)">~10</text><text class="st128 st99 st124" transform="matrix(1 0 0 1 1663.1458 319.5818)">devs</text><text class="st128 st99 st93" transform="matrix(1 0 0 1 1545.5764 355.5818)">active maintainers</text><g id="dev_4_"><g><path d="M1669.8,167.7c15.7,0.4,32-4.4,32-14.3c0-10.7-4.3-20.7-11-27c-4.9-4.7-14.2,11.6-21,11.6h0 c-6.8,0-16.1-16.3-21-11.6c-6.7,6.3-11,16.1-11,26.8C1637.8,163.1,1654,168,1669.8,167.7L1669.8,167.7z" class="st131"/><path d="M1689.7,102.4c0,14.4-14.3,26-19.9,26s-19.9-11.6-19.9-26c0-14.4,8.9-26,19.9-26 C1680.7,76.4,1689.7,88.1,1689.7,102.4z" class="st132"/></g><g><path d="M1752,169.8c0,5.3-4.3,9.2-9.5,9.2h-51.9c-5.3,0-9.5-3.9-9.5-9.2v-23.9c0-5.3,4.3-9.9,9.5-9.9h51.9 c5.3,0,9.5,4.6,9.5,9.9V169.8z" class="st132"/><g><path d="M1692.5,159.1l13.3,5v5.5l-18.8-8.4v-4.3l18.8-8.4v5.5L1692.5,159.1z" class="st128"/><path d="M1713.2,176.1h-4.3l12.9-35.5h4.3L1713.2,176.1z" class="st128"/><path d="M1741.8,159l-13.9-5.1v-5.4l19.4,8.4v4.3l-19.4,8.4v-5.4L1741.8,159z" class="st128"/></g></g></g></g><g id="bg5_1_" class="st89"><g class="st133"><rect width="368" height="1000" x="40" y="40" class="st134"/><rect width="368" height="1000" x="408" y="40" class="st135"/><rect width="368" height="1000" x="776" y="40" class="st134"/><rect width="368" height="1000" x="1512" y="40" class="st134"/><rect width="368" height="1000" x="1144" y="40" class="st135"/></g><g class="st136"><rect width="1840" height="333" x="40" y="40" class="st137"/><rect width="1840" height="333" x="40" y="707" class="st137"/><rect width="1840" height="334" x="40" y="373" class="st138"/></g></g><path d="M80.8,287.4c0.4,0,0.7,0.1,1.1,0.3c0.3,0.2,0.6,0.4,0.9,0.6c0.4,0.3,0.7,0.7,1,1.1l27.6,34.9 c-0.1-1.1-0.2-2.2-0.2-3.2c-0.1-1-0.1-2-0.1-3v-30.7h11.9v58.1h-7c-0.9,0-1.8-0.1-2.6-0.5c-0.8-0.4-1.5-1-2.1-1.8l-27.4-34.6 c0.1,1,0.1,2,0.2,3c0,1,0.1,1.9,0.1,2.7v31.1H72.2v-58.1h7.1C79.8,287.3,80.3,287.4,80.8,287.4z" class="st97"/><path d="M142.4,304.1v26.2c0,2,0.5,3.6,1.4,4.7c1,1.2,2.6,1.8,4.1,1.7c1.3,0,2.6-0.3,3.8-0.8 c1.3-0.6,2.4-1.4,3.5-2.3v-29.5h12.4v41.3h-7.6c-1.4,0.1-2.6-0.7-3-2.1l-0.8-2.4c-0.8,0.8-1.6,1.5-2.5,2.1 c-0.9,0.6-1.8,1.2-2.7,1.6c-1,0.4-2.1,0.8-3.1,1c-1.2,0.3-2.4,0.4-3.7,0.4c-2.1,0-4.1-0.4-6-1.2c-1.7-0.7-3.2-1.9-4.4-3.3 c-1.2-1.5-2.1-3.2-2.7-5c-0.6-2-0.9-4.2-0.9-6.3v-26.2L142.4,304.1z" class="st97"/><path d="M175.5,345.4v-41.3h7.6c0.7,0,1.4,0.2,1.9,0.5c0.5,0.4,0.9,0.9,1.1,1.6l0.7,2.2c0.7-0.7,1.4-1.4,2.2-2 c1.5-1.2,3.3-2.1,5.2-2.6c1.1-0.3,2.2-0.4,3.3-0.4c2.2-0.1,4.4,0.6,6.2,1.9c1.7,1.4,3,3.1,3.7,5.2c0.7-1.2,1.5-2.3,2.5-3.3 c1-0.9,2-1.6,3.2-2.2c1.2-0.6,2.4-1,3.7-1.2c1.3-0.3,2.6-0.4,3.8-0.4c2.1,0,4.3,0.3,6.3,1.1c1.8,0.6,3.3,1.7,4.6,3.1 c1.3,1.4,2.2,3.1,2.8,4.9c0.7,2.1,1,4.4,1,6.6v26.2H223v-26.2c0-4.3-1.8-6.4-5.5-6.4c-1.6,0-3.1,0.6-4.2,1.7 c-1.1,1.1-1.7,2.7-1.7,4.8v26.2h-12.4v-26.2c0-2.4-0.5-4-1.4-5s-2.3-1.4-4.1-1.4c-1.1,0-2.2,0.3-3.2,0.8c-1,0.5-2,1.2-2.8,2v29.9 L175.5,345.4z" class="st97"/><path d="M256,326v19.4h-13.5v-58.1H263c3.6-0.1,7.1,0.4,10.6,1.5c2.7,0.8,5.1,2.2,7.3,4c1.9,1.6,3.3,3.7,4.2,6 c0.9,2.4,1.4,4.9,1.3,7.5c0,2.7-0.4,5.4-1.4,8c-0.9,2.4-2.4,4.5-4.3,6.2c-2.1,1.8-4.6,3.2-7.3,4c-3.4,1-6.9,1.5-10.4,1.5H256z M256,315.8h7c3.5,0,6-0.8,7.6-2.5c1.5-1.7,2.3-4,2.3-7c0-1.2-0.2-2.5-0.6-3.6c-0.4-1.1-1-2-1.8-2.8c-0.9-0.8-1.9-1.4-3.1-1.8 c-1.4-0.5-2.9-0.7-4.4-0.6h-7V315.8z" class="st97"/><path d="M310.3,356.1c-0.5,1.6-2.2,2.7-3.9,2.4h-9.2l8-16.7l-16.5-37.7h10.9c0.8,0,1.6,0.2,2.2,0.6 c0.5,0.4,0.9,0.9,1.1,1.5l6.8,17.8c0.6,1.6,1.1,3.3,1.6,4.9c0.3-0.8,0.6-1.7,0.9-2.5s0.6-1.7,0.9-2.5l6.1-17.7 c0.2-0.6,0.7-1.2,1.3-1.5c0.6-0.4,1.3-0.6,2-0.6h10L310.3,356.1z" class="st97"/><polygon points="188.7 115.7 156.4 99.4 121 117.1 154.1 133.7" class="st94"/><polygon points="203.5 123.2 237.4 140.2 202.2 157.9 169 141.2" class="st94"/><polygon points="248.7 99.6 283.5 117.1 252.4 132.7 218.5 115.6" class="st94"/><polygon points="233.7 92.1 202.4 76.4 171.5 91.9 203.7 108.2" class="st94"/><polygon points="209.3 226.9 209.3 269.7 247.2 250.7 247.2 208" class="st94"/><polygon points="247.1 193.1 247.1 150.8 209.3 169.6 209.3 211.9" class="st94"/><polygon points="292.7 185.2 292.7 228 260.3 244.2 260.3 201.5" class="st94"/><polygon points="292.7 170.2 292.7 128.1 260.3 144.2 260.3 186.6" class="st94"/><path d="M195.9,169.6l-25.6-12.8v55.5c0,0-31.2-66.5-34.1-72.4c-0.4-0.8-1.9-1.6-2.3-1.8c-5.6-2.9-22-11.3-22-11.3 v98.1l22.7,12.1v-51.3c0,0,30.9,59.4,31.2,60c0.3,0.6,3.4,6.9,6.7,9.1c4.4,2.9,23.3,14.3,23.3,14.3L195.9,169.6z" class="st97"/></g></switch></svg>